solid OpenSCAD_Model
  facet normal 0.866025 0.5 0
    outer loop
      vertex 14.6167 6.50779 2.1
      vertex 12.9443 9.40456 0
      vertex 12.9443 9.40456 2.1
    endloop
  endfacet
  facet normal 0.866025 0.5 0
    outer loop
      vertex 12.9443 9.40456 0
      vertex 14.6167 6.50779 2.1
      vertex 14.6167 6.50779 0
    endloop
  endfacet
  facet normal 0 1 -0
    outer loop
      vertex 1.67245 15.9123 0
      vertex -1.67245 15.9123 2.1
      vertex 1.67245 15.9123 2.1
    endloop
  endfacet
  facet normal 0 1 0
    outer loop
      vertex -1.67245 15.9123 2.1
      vertex 1.67245 15.9123 0
      vertex -1.67245 15.9123 0
    endloop
  endfacet
  facet normal -0.951057 0.309017 0
    outer loop
      vertex -15.6504 3.32659 0
      vertex -14.6167 6.50779 2.1
      vertex -14.6167 6.50779 0
    endloop
  endfacet
  facet normal -0.951057 0.309017 0
    outer loop
      vertex -14.6167 6.50779 2.1
      vertex -15.6504 3.32659 0
      vertex -15.6504 3.32659 2.1
    endloop
  endfacet
  facet normal 0.743145 0.669131 0
    outer loop
      vertex 12.9443 9.40456 2.1
      vertex 10.7061 11.8903 0
      vertex 10.7061 11.8903 2.1
    endloop
  endfacet
  facet normal 0.743145 0.669131 0
    outer loop
      vertex 10.7061 11.8903 0
      vertex 12.9443 9.40456 2.1
      vertex 12.9443 9.40456 0
    endloop
  endfacet
  facet normal 0.207912 0.978148 -0
    outer loop
      vertex 4.94427 15.2169 0
      vertex 1.67245 15.9123 2.1
      vertex 4.94427 15.2169 2.1
    endloop
  endfacet
  facet normal 0.207912 0.978148 0
    outer loop
      vertex 1.67245 15.9123 2.1
      vertex 4.94427 15.2169 0
      vertex 1.67245 15.9123 0
    endloop
  endfacet
  facet normal -0.406737 0.913545 0
    outer loop
      vertex -4.94427 15.2169 0
      vertex -8 13.8564 2.1
      vertex -4.94427 15.2169 2.1
    endloop
  endfacet
  facet normal -0.406737 0.913545 0
    outer loop
      vertex -8 13.8564 2.1
      vertex -4.94427 15.2169 0
      vertex -8 13.8564 0
    endloop
  endfacet
  facet normal -0.866025 0.5 0
    outer loop
      vertex -14.6167 6.50779 0
      vertex -12.9443 9.40456 2.1
      vertex -12.9443 9.40456 0
    endloop
  endfacet
  facet normal -0.866025 0.5 0
    outer loop
      vertex -12.9443 9.40456 2.1
      vertex -14.6167 6.50779 0
      vertex -14.6167 6.50779 2.1
    endloop
  endfacet
  facet normal -0.587785 0.809017 0
    outer loop
      vertex -8 13.8564 0
      vertex -10.7061 11.8903 2.1
      vertex -8 13.8564 2.1
    endloop
  endfacet
  facet normal -0.587785 0.809017 0
    outer loop
      vertex -10.7061 11.8903 2.1
      vertex -8 13.8564 0
      vertex -10.7061 11.8903 0
    endloop
  endfacet
  facet normal 0.994522 -0.104529 0
    outer loop
      vertex 15.6504 -3.32659 2.1
      vertex 16 0 0
      vertex 16 0 2.1
    endloop
  endfacet
  facet normal 0.994522 -0.104529 0
    outer loop
      vertex 16 0 0
      vertex 15.6504 -3.32659 2.1
      vertex 15.6504 -3.32659 0
    endloop
  endfacet
  facet normal 0.207912 -0.978148 0
    outer loop
      vertex 1.67245 -15.9123 0
      vertex 4.94427 -15.2169 2.1
      vertex 1.67245 -15.9123 2.1
    endloop
  endfacet
  facet normal 0.207912 -0.978148 0
    outer loop
      vertex 4.94427 -15.2169 2.1
      vertex 1.67245 -15.9123 0
      vertex 4.94427 -15.2169 0
    endloop
  endfacet
  facet normal 0.951057 0.309017 0
    outer loop
      vertex 15.6504 3.32659 2.1
      vertex 14.6167 6.50779 0
      vertex 14.6167 6.50779 2.1
    endloop
  endfacet
  facet normal 0.951057 0.309017 0
    outer loop
      vertex 14.6167 6.50779 0
      vertex 15.6504 3.32659 2.1
      vertex 15.6504 3.32659 0
    endloop
  endfacet
  facet normal 0.587785 0.809017 -0
    outer loop
      vertex 10.7061 11.8903 0
      vertex 8 13.8564 2.1
      vertex 10.7061 11.8903 2.1
    endloop
  endfacet
  facet normal 0.587785 0.809017 0
    outer loop
      vertex 8 13.8564 2.1
      vertex 10.7061 11.8903 0
      vertex 8 13.8564 0
    endloop
  endfacet
  facet normal 0.406736 0.913546 -0
    outer loop
      vertex 8 13.8564 0
      vertex 4.94427 15.2169 2.1
      vertex 8 13.8564 2.1
    endloop
  endfacet
  facet normal 0.406736 0.913546 0
    outer loop
      vertex 4.94427 15.2169 2.1
      vertex 8 13.8564 0
      vertex 4.94427 15.2169 0
    endloop
  endfacet
  facet normal -0.994522 0.104529 0
    outer loop
      vertex -16 0 0
      vertex -15.6504 3.32659 2.1
      vertex -15.6504 3.32659 0
    endloop
  endfacet
  facet normal -0.994522 0.104529 0
    outer loop
      vertex -15.6504 3.32659 2.1
      vertex -16 0 0
      vertex -16 0 2.1
    endloop
  endfacet
  facet normal -0.743145 0.669131 0
    outer loop
      vertex -12.9443 9.40456 0
      vertex -10.7061 11.8903 2.1
      vertex -10.7061 11.8903 0
    endloop
  endfacet
  facet normal -0.743145 0.669131 0
    outer loop
      vertex -10.7061 11.8903 2.1
      vertex -12.9443 9.40456 0
      vertex -12.9443 9.40456 2.1
    endloop
  endfacet
  facet normal -0.207912 0.978148 0
    outer loop
      vertex -1.67245 15.9123 0
      vertex -4.94427 15.2169 2.1
      vertex -1.67245 15.9123 2.1
    endloop
  endfacet
  facet normal -0.207912 0.978148 0
    outer loop
      vertex -4.94427 15.2169 2.1
      vertex -1.67245 15.9123 0
      vertex -4.94427 15.2169 0
    endloop
  endfacet
  facet normal 0.994522 0.104529 0
    outer loop
      vertex 16 0 2.1
      vertex 15.6504 3.32659 0
      vertex 15.6504 3.32659 2.1
    endloop
  endfacet
  facet normal 0.994522 0.104529 0
    outer loop
      vertex 15.6504 3.32659 0
      vertex 16 0 2.1
      vertex 16 0 0
    endloop
  endfacet
  facet normal 0.951057 -0.309017 0
    outer loop
      vertex 14.6167 -6.50779 2.1
      vertex 15.6504 -3.32659 0
      vertex 15.6504 -3.32659 2.1
    endloop
  endfacet
  facet normal 0.951057 -0.309017 0
    outer loop
      vertex 15.6504 -3.32659 0
      vertex 14.6167 -6.50779 2.1
      vertex 14.6167 -6.50779 0
    endloop
  endfacet
  facet normal -0.587785 -0.809017 0
    outer loop
      vertex -10.7061 -11.8903 0
      vertex -8 -13.8564 2.1
      vertex -10.7061 -11.8903 2.1
    endloop
  endfacet
  facet normal -0.587785 -0.809017 -0
    outer loop
      vertex -8 -13.8564 2.1
      vertex -10.7061 -11.8903 0
      vertex -8 -13.8564 0
    endloop
  endfacet
  facet normal -0.866025 -0.5 0
    outer loop
      vertex -12.9443 -9.40456 0
      vertex -14.6167 -6.50779 2.1
      vertex -14.6167 -6.50779 0
    endloop
  endfacet
  facet normal -0.866025 -0.5 0
    outer loop
      vertex -14.6167 -6.50779 2.1
      vertex -12.9443 -9.40456 0
      vertex -12.9443 -9.40456 2.1
    endloop
  endfacet
  facet normal 0.587785 -0.809017 0
    outer loop
      vertex 8 -13.8564 0
      vertex 10.7061 -11.8903 2.1
      vertex 8 -13.8564 2.1
    endloop
  endfacet
  facet normal 0.587785 -0.809017 0
    outer loop
      vertex 10.7061 -11.8903 2.1
      vertex 8 -13.8564 0
      vertex 10.7061 -11.8903 0
    endloop
  endfacet
  facet normal 0 0 1
    outer loop
      vertex -5.9667 1.26826 2.1
      vertex -9.22778 2.21538 2.1
      vertex -6.1 0 2.1
    endloop
  endfacet
  facet normal 0 0 1
    outer loop
      vertex -6.1 0 2.1
      vertex -8.7676 -3.63165 2.1
      vertex -7.21625 -6.16326 2.1
    endloop
  endfacet
  facet normal 0 0 1
    outer loop
      vertex -9.46074 -0.744576 2.1
      vertex -6.1 0 2.1
      vertex -9.22778 2.21538 2.1
    endloop
  endfacet
  facet normal 0 0 1
    outer loop
      vertex -12.7896 7.83747 2.1
      vertex -9.22778 2.21538 2.1
      vertex -8.09155 4.95851 2.1
    endloop
  endfacet
  facet normal 0 0 1
    outer loop
      vertex -12.7896 7.83747 2.1
      vertex -14.5855 3.50168 2.1
      vertex -9.22778 2.21538 2.1
    endloop
  endfacet
  facet normal 0 0 1
    outer loop
      vertex -14.6167 6.50779 2.1
      vertex -12.7896 7.83747 2.1
      vertex -12.9443 9.40456 2.1
    endloop
  endfacet
  facet normal 0 0 1
    outer loop
      vertex -12.7896 7.83747 2.1
      vertex -14.6167 6.50779 2.1
      vertex -14.5855 3.50168 2.1
    endloop
  endfacet
  facet normal 0 0 1
    outer loop
      vertex -15.6504 3.32659 2.1
      vertex -14.5855 3.50168 2.1
      vertex -14.6167 6.50779 2.1
    endloop
  endfacet
  facet normal 0 0 1
    outer loop
      vertex -16 0 2.1
      vertex -14.5855 3.50168 2.1
      vertex -15.6504 3.32659 2.1
    endloop
  endfacet
  facet normal 0 0 1
    outer loop
      vertex -4.95851 -8.09155 2.1
      vertex -1.885 -5.80144 2.1
      vertex -3.05 -5.28275 2.1
    endloop
  endfacet
  facet normal 0 0 1
    outer loop
      vertex -4.95851 -8.09155 2.1
      vertex -3.05 -5.28275 2.1
      vertex -4.0817 -4.53318 2.1
    endloop
  endfacet
  facet normal 0 0 1
    outer loop
      vertex -7.21625 -6.16326 2.1
      vertex -4.0817 -4.53318 2.1
      vertex -4.935 -3.58549 2.1
    endloop
  endfacet
  facet normal 0 0 1
    outer loop
      vertex -1.885 -5.80144 2.1
      vertex -4.95851 -8.09155 2.1
      vertex -2.21538 -9.22778 2.1
    endloop
  endfacet
  facet normal 0 0 1
    outer loop
      vertex -7.21625 -6.16326 2.1
      vertex -4.935 -3.58549 2.1
      vertex -5.57263 -2.48109 2.1
    endloop
  endfacet
  facet normal 0 0 1
    outer loop
      vertex -7.21625 -6.16326 2.1
      vertex -5.57263 -2.48109 2.1
      vertex -5.9667 -1.26826 2.1
    endloop
  endfacet
  facet normal 0 0 1
    outer loop
      vertex -5.57263 2.48109 2.1
      vertex -9.22778 2.21538 2.1
      vertex -5.9667 1.26826 2.1
    endloop
  endfacet
  facet normal 0 0 1
    outer loop
      vertex -7.21625 -6.16326 2.1
      vertex -5.9667 -1.26826 2.1
      vertex -6.1 0 2.1
    endloop
  endfacet
  facet normal 0 0 1
    outer loop
      vertex -4.0817 -4.53318 2.1
      vertex -7.21625 -6.16326 2.1
      vertex -4.95851 -8.09155 2.1
    endloop
  endfacet
  facet normal 0 0 1
    outer loop
      vertex -7.21625 -6.16326 2.1
      vertex -7.83747 -12.7896 2.1
      vertex -4.95851 -8.09155 2.1
    endloop
  endfacet
  facet normal -0 0 1
    outer loop
      vertex -11.4061 -9.74171 2.1
      vertex -7.83747 -12.7896 2.1
      vertex -7.21625 -6.16326 2.1
    endloop
  endfacet
  facet normal 0 0 1
    outer loop
      vertex -7.83747 -12.7896 2.1
      vertex -10.7061 -11.8903 2.1
      vertex -8 -13.8564 2.1
    endloop
  endfacet
  facet normal 0 0 1
    outer loop
      vertex -7.83747 -12.7896 2.1
      vertex -11.4061 -9.74171 2.1
      vertex -10.7061 -11.8903 2.1
    endloop
  endfacet
  facet normal 0 0 1
    outer loop
      vertex -11.4061 -9.74171 2.1
      vertex -12.9443 -9.40456 2.1
      vertex -10.7061 -11.8903 2.1
    endloop
  endfacet
  facet normal 0 0 1
    outer loop
      vertex -13.8582 -5.74025 2.1
      vertex -12.9443 -9.40456 2.1
      vertex -11.4061 -9.74171 2.1
    endloop
  endfacet
  facet normal 0 0 1
    outer loop
      vertex -12.9443 -9.40456 2.1
      vertex -13.8582 -5.74025 2.1
      vertex -14.6167 -6.50779 2.1
    endloop
  endfacet
  facet normal 0 0 1
    outer loop
      vertex -0.744576 9.46074 2.1
      vertex -1.885 5.80144 2.1
      vertex -0.637623 6.06658 2.1
    endloop
  endfacet
  facet normal -0 0 1
    outer loop
      vertex -3.63165 8.7676 2.1
      vertex -1.885 5.80144 2.1
      vertex -0.744576 9.46074 2.1
    endloop
  endfacet
  facet normal 0 0 1
    outer loop
      vertex -1.885 5.80144 2.1
      vertex -3.63165 8.7676 2.1
      vertex -3.05 5.28275 2.1
    endloop
  endfacet
  facet normal -0 0 1
    outer loop
      vertex -6.16326 7.21625 2.1
      vertex -3.05 5.28275 2.1
      vertex -3.63165 8.7676 2.1
    endloop
  endfacet
  facet normal 0 0 1
    outer loop
      vertex -3.05 5.28275 2.1
      vertex -6.16326 7.21625 2.1
      vertex -4.0817 4.53318 2.1
    endloop
  endfacet
  facet normal 0 0 1
    outer loop
      vertex -4.0817 4.53318 2.1
      vertex -6.16326 7.21625 2.1
      vertex -4.935 3.58549 2.1
    endloop
  endfacet
  facet normal 0 0 1
    outer loop
      vertex -6.16326 7.21625 2.1
      vertex -3.63165 8.7676 2.1
      vertex -5.74025 13.8582 2.1
    endloop
  endfacet
  facet normal -0 0 1
    outer loop
      vertex -8.09155 4.95851 2.1
      vertex -4.935 3.58549 2.1
      vertex -6.16326 7.21625 2.1
    endloop
  endfacet
  facet normal 0 0 1
    outer loop
      vertex -6.1 0 2.1
      vertex -9.46074 -0.744576 2.1
      vertex -8.7676 -3.63165 2.1
    endloop
  endfacet
  facet normal 0 0 1
    outer loop
      vertex -9.46074 -0.744576 2.1
      vertex -13.8582 -5.74025 2.1
      vertex -8.7676 -3.63165 2.1
    endloop
  endfacet
  facet normal -0 0 1
    outer loop
      vertex -14.9538 -1.17689 2.1
      vertex -13.8582 -5.74025 2.1
      vertex -9.46074 -0.744576 2.1
    endloop
  endfacet
  facet normal 0 0 1
    outer loop
      vertex -13.8582 -5.74025 2.1
      vertex -14.9538 -1.17689 2.1
      vertex -15.6504 -3.32659 2.1
    endloop
  endfacet
  facet normal 0 0 1
    outer loop
      vertex -14.5855 3.50168 2.1
      vertex -16 0 2.1
      vertex -14.9538 -1.17689 2.1
    endloop
  endfacet
  facet normal 0 0 1
    outer loop
      vertex -13.8582 -5.74025 2.1
      vertex -15.6504 -3.32659 2.1
      vertex -14.6167 -6.50779 2.1
    endloop
  endfacet
  facet normal 0 0 1
    outer loop
      vertex -14.9538 -1.17689 2.1
      vertex -16 0 2.1
      vertex -15.6504 -3.32659 2.1
    endloop
  endfacet
  facet normal 0 0 1
    outer loop
      vertex 8.09155 -4.95851 2.1
      vertex 4.935 -3.58549 2.1
      vertex 6.16326 -7.21625 2.1
    endloop
  endfacet
  facet normal -0 0 1
    outer loop
      vertex 4.0817 -4.53318 2.1
      vertex 6.16326 -7.21625 2.1
      vertex 4.935 -3.58549 2.1
    endloop
  endfacet
  facet normal -0 0 1
    outer loop
      vertex 3.05 -5.28275 2.1
      vertex 6.16326 -7.21625 2.1
      vertex 4.0817 -4.53318 2.1
    endloop
  endfacet
  facet normal 0 0 1
    outer loop
      vertex 6.16326 -7.21625 2.1
      vertex 3.63165 -8.7676 2.1
      vertex 5.74025 -13.8582 2.1
    endloop
  endfacet
  facet normal 0 0 1
    outer loop
      vertex 6.16326 -7.21625 2.1
      vertex 3.05 -5.28275 2.1
      vertex 3.63165 -8.7676 2.1
    endloop
  endfacet
  facet normal -0 0 1
    outer loop
      vertex 1.885 -5.80144 2.1
      vertex 3.63165 -8.7676 2.1
      vertex 3.05 -5.28275 2.1
    endloop
  endfacet
  facet normal 0 0 1
    outer loop
      vertex 1.885 -5.80144 2.1
      vertex 0.744576 -9.46074 2.1
      vertex 3.63165 -8.7676 2.1
    endloop
  endfacet
  facet normal 0 -0 1
    outer loop
      vertex 0.744576 -9.46074 2.1
      vertex 1.885 -5.80144 2.1
      vertex 0.637623 -6.06658 2.1
    endloop
  endfacet
  facet normal 0 0 1
    outer loop
      vertex 4.94427 15.2169 2.1
      vertex 7.83747 12.7896 2.1
      vertex 8 13.8564 2.1
    endloop
  endfacet
  facet normal 0 0 1
    outer loop
      vertex 4.94427 15.2169 2.1
      vertex 3.50168 14.5855 2.1
      vertex 7.83747 12.7896 2.1
    endloop
  endfacet
  facet normal 0 0 1
    outer loop
      vertex 1.67245 15.9123 2.1
      vertex 3.50168 14.5855 2.1
      vertex 4.94427 15.2169 2.1
    endloop
  endfacet
  facet normal -0 0 1
    outer loop
      vertex -1.17689 14.9538 2.1
      vertex 3.50168 14.5855 2.1
      vertex 1.67245 15.9123 2.1
    endloop
  endfacet
  facet normal 0 0 1
    outer loop
      vertex 3.50168 14.5855 2.1
      vertex -1.17689 14.9538 2.1
      vertex 2.21538 9.22778 2.1
    endloop
  endfacet
  facet normal 0 -0 1
    outer loop
      vertex 0.637623 6.06658 2.1
      vertex 2.21538 9.22778 2.1
      vertex -0.744576 9.46074 2.1
    endloop
  endfacet
  facet normal 0 0 1
    outer loop
      vertex 2.21538 9.22778 2.1
      vertex 0.637623 6.06658 2.1
      vertex 1.885 5.80144 2.1
    endloop
  endfacet
  facet normal 0 0 1
    outer loop
      vertex 0.637623 6.06658 2.1
      vertex -0.744576 9.46074 2.1
      vertex -0.637623 6.06658 2.1
    endloop
  endfacet
  facet normal 0 0 1
    outer loop
      vertex 2.21538 9.22778 2.1
      vertex -1.17689 14.9538 2.1
      vertex -0.744576 9.46074 2.1
    endloop
  endfacet
  facet normal -0 0 1
    outer loop
      vertex -1.67245 15.9123 2.1
      vertex -1.17689 14.9538 2.1
      vertex 1.67245 15.9123 2.1
    endloop
  endfacet
  facet normal -0 0 1
    outer loop
      vertex -4.94427 15.2169 2.1
      vertex -1.17689 14.9538 2.1
      vertex -1.67245 15.9123 2.1
    endloop
  endfacet
  facet normal 0 0 1
    outer loop
      vertex -4.94427 15.2169 2.1
      vertex -5.74025 13.8582 2.1
      vertex -1.17689 14.9538 2.1
    endloop
  endfacet
  facet normal 0 0 1
    outer loop
      vertex -4.935 3.58549 2.1
      vertex -8.09155 4.95851 2.1
      vertex -5.57263 2.48109 2.1
    endloop
  endfacet
  facet normal 0 0 1
    outer loop
      vertex -9.22778 2.21538 2.1
      vertex -5.57263 2.48109 2.1
      vertex -8.09155 4.95851 2.1
    endloop
  endfacet
  facet normal 0 0 1
    outer loop
      vertex -8 13.8564 2.1
      vertex -5.74025 13.8582 2.1
      vertex -4.94427 15.2169 2.1
    endloop
  endfacet
  facet normal 0 0 1
    outer loop
      vertex -9.74171 11.4061 2.1
      vertex -5.74025 13.8582 2.1
      vertex -8 13.8564 2.1
    endloop
  endfacet
  facet normal 0 0 1
    outer loop
      vertex -5.74025 13.8582 2.1
      vertex -9.74171 11.4061 2.1
      vertex -6.16326 7.21625 2.1
    endloop
  endfacet
  facet normal -0 0 1
    outer loop
      vertex -10.7061 11.8903 2.1
      vertex -9.74171 11.4061 2.1
      vertex -8 13.8564 2.1
    endloop
  endfacet
  facet normal 0 0 1
    outer loop
      vertex -12.9443 9.40456 2.1
      vertex -9.74171 11.4061 2.1
      vertex -10.7061 11.8903 2.1
    endloop
  endfacet
  facet normal 0 0 1
    outer loop
      vertex -9.74171 11.4061 2.1
      vertex -12.9443 9.40456 2.1
      vertex -12.7896 7.83747 2.1
    endloop
  endfacet
  facet normal 0 0 1
    outer loop
      vertex 12.9443 9.40456 2.1
      vertex 13.8582 5.74025 2.1
      vertex 14.6167 6.50779 2.1
    endloop
  endfacet
  facet normal 0 0 1
    outer loop
      vertex 12.9443 9.40456 2.1
      vertex 11.4061 9.74171 2.1
      vertex 13.8582 5.74025 2.1
    endloop
  endfacet
  facet normal 0 0 1
    outer loop
      vertex 10.7061 11.8903 2.1
      vertex 11.4061 9.74171 2.1
      vertex 12.9443 9.40456 2.1
    endloop
  endfacet
  facet normal -0 0 1
    outer loop
      vertex 7.83747 12.7896 2.1
      vertex 10.7061 11.8903 2.1
      vertex 8 13.8564 2.1
    endloop
  endfacet
  facet normal 0 0 1
    outer loop
      vertex 10.7061 11.8903 2.1
      vertex 7.83747 12.7896 2.1
      vertex 11.4061 9.74171 2.1
    endloop
  endfacet
  facet normal 0 0 1
    outer loop
      vertex 7.83747 12.7896 2.1
      vertex 7.21625 6.16326 2.1
      vertex 11.4061 9.74171 2.1
    endloop
  endfacet
  facet normal 0 0 1
    outer loop
      vertex 5.57263 -2.48109 2.1
      vertex 9.22778 -2.21538 2.1
      vertex 5.9667 -1.26826 2.1
    endloop
  endfacet
  facet normal -0 0 1
    outer loop
      vertex 4.95851 8.09155 2.1
      vertex 7.21625 6.16326 2.1
      vertex 7.83747 12.7896 2.1
    endloop
  endfacet
  facet normal 0 0 1
    outer loop
      vertex 8.7676 3.63165 2.1
      vertex 5.9667 1.26826 2.1
      vertex 6.1 0 2.1
    endloop
  endfacet
  facet normal 0 0 1
    outer loop
      vertex 8.7676 3.63165 2.1
      vertex 5.57263 2.48109 2.1
      vertex 5.9667 1.26826 2.1
    endloop
  endfacet
  facet normal 0 0 1
    outer loop
      vertex 4.0817 4.53318 2.1
      vertex 7.21625 6.16326 2.1
      vertex 4.95851 8.09155 2.1
    endloop
  endfacet
  facet normal 0 0 1
    outer loop
      vertex 8.7676 3.63165 2.1
      vertex 4.935 3.58549 2.1
      vertex 5.57263 2.48109 2.1
    endloop
  endfacet
  facet normal 0 0 1
    outer loop
      vertex 7.21625 6.16326 2.1
      vertex 4.0817 4.53318 2.1
      vertex 4.935 3.58549 2.1
    endloop
  endfacet
  facet normal 0 0 1
    outer loop
      vertex 4.95851 8.09155 2.1
      vertex 3.05 5.28275 2.1
      vertex 4.0817 4.53318 2.1
    endloop
  endfacet
  facet normal 0 0 1
    outer loop
      vertex 1.885 5.80144 2.1
      vertex 4.95851 8.09155 2.1
      vertex 2.21538 9.22778 2.1
    endloop
  endfacet
  facet normal 0 0 1
    outer loop
      vertex 4.95851 8.09155 2.1
      vertex 1.885 5.80144 2.1
      vertex 3.05 5.28275 2.1
    endloop
  endfacet
  facet normal -0 0 1
    outer loop
      vertex 14.9538 1.17689 2.1
      vertex 16 0 2.1
      vertex 15.6504 3.32659 2.1
    endloop
  endfacet
  facet normal 0 0 1
    outer loop
      vertex 14.5855 -3.50168 2.1
      vertex 16 0 2.1
      vertex 14.9538 1.17689 2.1
    endloop
  endfacet
  facet normal -0 0 1
    outer loop
      vertex 13.8582 5.74025 2.1
      vertex 15.6504 3.32659 2.1
      vertex 14.6167 6.50779 2.1
    endloop
  endfacet
  facet normal 0 0 1
    outer loop
      vertex 15.6504 3.32659 2.1
      vertex 13.8582 5.74025 2.1
      vertex 14.9538 1.17689 2.1
    endloop
  endfacet
  facet normal 0 0 1
    outer loop
      vertex 13.8582 5.74025 2.1
      vertex 9.46074 0.744576 2.1
      vertex 14.9538 1.17689 2.1
    endloop
  endfacet
  facet normal 0 0 1
    outer loop
      vertex 6.1 0 2.1
      vertex 9.46074 0.744576 2.1
      vertex 8.7676 3.63165 2.1
    endloop
  endfacet
  facet normal -0 0 1
    outer loop
      vertex 8.7676 3.63165 2.1
      vertex 9.46074 0.744576 2.1
      vertex 13.8582 5.74025 2.1
    endloop
  endfacet
  facet normal 0 0 1
    outer loop
      vertex 16 0 2.1
      vertex 14.5855 -3.50168 2.1
      vertex 15.6504 -3.32659 2.1
    endloop
  endfacet
  facet normal 0 0 1
    outer loop
      vertex 15.6504 -3.32659 2.1
      vertex 14.5855 -3.50168 2.1
      vertex 14.6167 -6.50779 2.1
    endloop
  endfacet
  facet normal 0 0 1
    outer loop
      vertex 12.7896 -7.83747 2.1
      vertex 14.6167 -6.50779 2.1
      vertex 14.5855 -3.50168 2.1
    endloop
  endfacet
  facet normal 0 0 1
    outer loop
      vertex 14.6167 -6.50779 2.1
      vertex 12.7896 -7.83747 2.1
      vertex 12.9443 -9.40456 2.1
    endloop
  endfacet
  facet normal 0 0 1
    outer loop
      vertex 9.22778 -2.21538 2.1
      vertex 12.7896 -7.83747 2.1
      vertex 14.5855 -3.50168 2.1
    endloop
  endfacet
  facet normal 0 0 1
    outer loop
      vertex 9.22778 -2.21538 2.1
      vertex 8.09155 -4.95851 2.1
      vertex 12.7896 -7.83747 2.1
    endloop
  endfacet
  facet normal 0 0 1
    outer loop
      vertex 9.46074 0.744576 2.1
      vertex 6.1 0 2.1
      vertex 9.22778 -2.21538 2.1
    endloop
  endfacet
  facet normal 0 0 1
    outer loop
      vertex 4.935 3.58549 2.1
      vertex 8.7676 3.63165 2.1
      vertex 7.21625 6.16326 2.1
    endloop
  endfacet
  facet normal -0 0 1
    outer loop
      vertex 5.9667 -1.26826 2.1
      vertex 9.22778 -2.21538 2.1
      vertex 6.1 0 2.1
    endloop
  endfacet
  facet normal 0 0 1
    outer loop
      vertex 9.74171 -11.4061 2.1
      vertex 12.9443 -9.40456 2.1
      vertex 12.7896 -7.83747 2.1
    endloop
  endfacet
  facet normal 0 0 1
    outer loop
      vertex 12.9443 -9.40456 2.1
      vertex 9.74171 -11.4061 2.1
      vertex 10.7061 -11.8903 2.1
    endloop
  endfacet
  facet normal 0 0 1
    outer loop
      vertex 9.74171 -11.4061 2.1
      vertex 8 -13.8564 2.1
      vertex 10.7061 -11.8903 2.1
    endloop
  endfacet
  facet normal 0 0 1
    outer loop
      vertex 5.74025 -13.8582 2.1
      vertex 9.74171 -11.4061 2.1
      vertex 6.16326 -7.21625 2.1
    endloop
  endfacet
  facet normal 0 0 1
    outer loop
      vertex 9.22778 -2.21538 2.1
      vertex 5.57263 -2.48109 2.1
      vertex 8.09155 -4.95851 2.1
    endloop
  endfacet
  facet normal -0 0 1
    outer loop
      vertex 4.935 -3.58549 2.1
      vertex 8.09155 -4.95851 2.1
      vertex 5.57263 -2.48109 2.1
    endloop
  endfacet
  facet normal 0 0 1
    outer loop
      vertex 9.74171 -11.4061 2.1
      vertex 5.74025 -13.8582 2.1
      vertex 8 -13.8564 2.1
    endloop
  endfacet
  facet normal -0 0 1
    outer loop
      vertex 5.74025 -13.8582 2.1
      vertex 4.94427 -15.2169 2.1
      vertex 8 -13.8564 2.1
    endloop
  endfacet
  facet normal -0 0 1
    outer loop
      vertex 1.17689 -14.9538 2.1
      vertex 4.94427 -15.2169 2.1
      vertex 5.74025 -13.8582 2.1
    endloop
  endfacet
  facet normal 0 0 1
    outer loop
      vertex 4.94427 -15.2169 2.1
      vertex 1.17689 -14.9538 2.1
      vertex 1.67245 -15.9123 2.1
    endloop
  endfacet
  facet normal -0 0 1
    outer loop
      vertex -0.637623 -6.06658 2.1
      vertex 0.744576 -9.46074 2.1
      vertex 0.637623 -6.06658 2.1
    endloop
  endfacet
  facet normal -0 0 1
    outer loop
      vertex -2.21538 -9.22778 2.1
      vertex 0.744576 -9.46074 2.1
      vertex -0.637623 -6.06658 2.1
    endloop
  endfacet
  facet normal 0 0 1
    outer loop
      vertex 1.17689 -14.9538 2.1
      vertex -1.67245 -15.9123 2.1
      vertex 1.67245 -15.9123 2.1
    endloop
  endfacet
  facet normal 0 0 1
    outer loop
      vertex 0.744576 -9.46074 2.1
      vertex -2.21538 -9.22778 2.1
      vertex 1.17689 -14.9538 2.1
    endloop
  endfacet
  facet normal 0 0 1
    outer loop
      vertex -2.21538 -9.22778 2.1
      vertex -0.637623 -6.06658 2.1
      vertex -1.885 -5.80144 2.1
    endloop
  endfacet
  facet normal -0 0 1
    outer loop
      vertex -3.50168 -14.5855 2.1
      vertex 1.17689 -14.9538 2.1
      vertex -2.21538 -9.22778 2.1
    endloop
  endfacet
  facet normal 0 0 1
    outer loop
      vertex 1.17689 -14.9538 2.1
      vertex -3.50168 -14.5855 2.1
      vertex -1.67245 -15.9123 2.1
    endloop
  endfacet
  facet normal 0 0 1
    outer loop
      vertex -3.50168 -14.5855 2.1
      vertex -4.94427 -15.2169 2.1
      vertex -1.67245 -15.9123 2.1
    endloop
  endfacet
  facet normal 0 0 1
    outer loop
      vertex -7.83747 -12.7896 2.1
      vertex -4.94427 -15.2169 2.1
      vertex -3.50168 -14.5855 2.1
    endloop
  endfacet
  facet normal 0 0 1
    outer loop
      vertex -4.94427 -15.2169 2.1
      vertex -7.83747 -12.7896 2.1
      vertex -8 -13.8564 2.1
    endloop
  endfacet
  facet normal 0.866025 -0.5 0
    outer loop
      vertex 12.9443 -9.40456 2.1
      vertex 14.6167 -6.50779 0
      vertex 14.6167 -6.50779 2.1
    endloop
  endfacet
  facet normal 0.866025 -0.5 0
    outer loop
      vertex 14.6167 -6.50779 0
      vertex 12.9443 -9.40456 2.1
      vertex 12.9443 -9.40456 0
    endloop
  endfacet
  facet normal 0 -1 0
    outer loop
      vertex -1.67245 -15.9123 0
      vertex 1.67245 -15.9123 2.1
      vertex -1.67245 -15.9123 2.1
    endloop
  endfacet
  facet normal 0 -1 -0
    outer loop
      vertex 1.67245 -15.9123 2.1
      vertex -1.67245 -15.9123 0
      vertex 1.67245 -15.9123 0
    endloop
  endfacet
  facet normal -0.994522 -0.104529 0
    outer loop
      vertex -15.6504 -3.32659 0
      vertex -16 0 2.1
      vertex -16 0 0
    endloop
  endfacet
  facet normal -0.994522 -0.104529 0
    outer loop
      vertex -16 0 2.1
      vertex -15.6504 -3.32659 0
      vertex -15.6504 -3.32659 2.1
    endloop
  endfacet
  facet normal -0 0 -1
    outer loop
      vertex -3.15 0 0
      vertex -9.46074 -0.744576 0
      vertex -9.22778 2.21538 0
    endloop
  endfacet
  facet normal 0 0 -1
    outer loop
      vertex -13.8582 -5.74025 0
      vertex -9.46074 -0.744576 0
      vertex -8.7676 -3.63165 0
    endloop
  endfacet
  facet normal 0 0 -1
    outer loop
      vertex -15.6504 -3.32659 0
      vertex -13.8582 -5.74025 0
      vertex -14.6167 -6.50779 0
    endloop
  endfacet
  facet normal 0 -0 -1
    outer loop
      vertex -14.9538 -1.17689 0
      vertex -13.8582 -5.74025 0
      vertex -15.6504 -3.32659 0
    endloop
  endfacet
  facet normal 0 0 -1
    outer loop
      vertex -13.8582 -5.74025 0
      vertex -14.9538 -1.17689 0
      vertex -9.46074 -0.744576 0
    endloop
  endfacet
  facet normal 0 0 -1
    outer loop
      vertex -0.973403 2.99583 0
      vertex -0.744576 9.46074 0
      vertex -0.329265 3.13274 0
    endloop
  endfacet
  facet normal 0 0 -1
    outer loop
      vertex -3.63165 8.7676 0
      vertex -0.973403 2.99583 0
      vertex -1.575 2.72798 0
    endloop
  endfacet
  facet normal 0 0 -1
    outer loop
      vertex -6.16326 7.21625 0
      vertex -1.575 2.72798 0
      vertex -2.10776 2.34091 0
    endloop
  endfacet
  facet normal 0 0 -1
    outer loop
      vertex -6.16326 7.21625 0
      vertex -2.10776 2.34091 0
      vertex -2.5484 1.85152 0
    endloop
  endfacet
  facet normal 0 0 -1
    outer loop
      vertex -8.09155 4.95851 0
      vertex -2.5484 1.85152 0
      vertex -2.87767 1.28122 0
    endloop
  endfacet
  facet normal 0 0 -1
    outer loop
      vertex -9.22778 2.21538 0
      vertex -2.87767 1.28122 0
      vertex -3.08116 0.654922 0
    endloop
  endfacet
  facet normal 0 0 -1
    outer loop
      vertex -0.973403 2.99583 0
      vertex -3.63165 8.7676 0
      vertex -0.744576 9.46074 0
    endloop
  endfacet
  facet normal 0 0 -1
    outer loop
      vertex -9.22778 2.21538 0
      vertex -3.08116 0.654922 0
      vertex -3.15 0 0
    endloop
  endfacet
  facet normal -0 0 -1
    outer loop
      vertex -1.575 -2.72798 0
      vertex -4.95851 -8.09155 0
      vertex -2.10776 -2.34091 0
    endloop
  endfacet
  facet normal 0 0 -1
    outer loop
      vertex -7.21625 -6.16326 0
      vertex -2.10776 -2.34091 0
      vertex -4.95851 -8.09155 0
    endloop
  endfacet
  facet normal -0 0 -1
    outer loop
      vertex -2.10776 -2.34091 0
      vertex -7.21625 -6.16326 0
      vertex -2.5484 -1.85152 0
    endloop
  endfacet
  facet normal 0 0 -1
    outer loop
      vertex -8.7676 -3.63165 0
      vertex -2.5484 -1.85152 0
      vertex -7.21625 -6.16326 0
    endloop
  endfacet
  facet normal -0 0 -1
    outer loop
      vertex -2.5484 -1.85152 0
      vertex -8.7676 -3.63165 0
      vertex -2.87767 -1.28122 0
    endloop
  endfacet
  facet normal -0 0 -1
    outer loop
      vertex -2.87767 -1.28122 0
      vertex -8.7676 -3.63165 0
      vertex -3.08116 -0.654922 0
    endloop
  endfacet
  facet normal 0 0 -1
    outer loop
      vertex -1.575 2.72798 0
      vertex -6.16326 7.21625 0
      vertex -3.63165 8.7676 0
    endloop
  endfacet
  facet normal -0 0 -1
    outer loop
      vertex -3.63165 8.7676 0
      vertex -6.16326 7.21625 0
      vertex -5.74025 13.8582 0
    endloop
  endfacet
  facet normal 0 0 -1
    outer loop
      vertex -9.46074 -0.744576 0
      vertex -3.08116 -0.654922 0
      vertex -8.7676 -3.63165 0
    endloop
  endfacet
  facet normal 0 0 -1
    outer loop
      vertex -7.83747 -12.7896 0
      vertex -7.21625 -6.16326 0
      vertex -4.95851 -8.09155 0
    endloop
  endfacet
  facet normal 0 0 -1
    outer loop
      vertex -10.7061 -11.8903 0
      vertex -7.83747 -12.7896 0
      vertex -8 -13.8564 0
    endloop
  endfacet
  facet normal 0 0 -1
    outer loop
      vertex -11.4061 -9.74171 0
      vertex -7.83747 -12.7896 0
      vertex -10.7061 -11.8903 0
    endloop
  endfacet
  facet normal 0 0 -1
    outer loop
      vertex -7.83747 -12.7896 0
      vertex -11.4061 -9.74171 0
      vertex -7.21625 -6.16326 0
    endloop
  endfacet
  facet normal 0 0 -1
    outer loop
      vertex -12.9443 -9.40456 0
      vertex -11.4061 -9.74171 0
      vertex -10.7061 -11.8903 0
    endloop
  endfacet
  facet normal 0 0 -1
    outer loop
      vertex -12.9443 -9.40456 0
      vertex -13.8582 -5.74025 0
      vertex -11.4061 -9.74171 0
    endloop
  endfacet
  facet normal 0 -0 -1
    outer loop
      vertex -13.8582 -5.74025 0
      vertex -12.9443 -9.40456 0
      vertex -14.6167 -6.50779 0
    endloop
  endfacet
  facet normal 0 0 -1
    outer loop
      vertex -2.5484 1.85152 0
      vertex -8.09155 4.95851 0
      vertex -6.16326 7.21625 0
    endloop
  endfacet
  facet normal -0 0 -1
    outer loop
      vertex -3.08116 -0.654922 0
      vertex -9.46074 -0.744576 0
      vertex -3.15 0 0
    endloop
  endfacet
  facet normal 0 0 -1
    outer loop
      vertex -2.87767 1.28122 0
      vertex -9.22778 2.21538 0
      vertex -8.09155 4.95851 0
    endloop
  endfacet
  facet normal 0 0 -1
    outer loop
      vertex -9.22778 2.21538 0
      vertex -12.7896 7.83747 0
      vertex -8.09155 4.95851 0
    endloop
  endfacet
  facet normal 0 0 -1
    outer loop
      vertex -14.5855 3.50168 0
      vertex -12.7896 7.83747 0
      vertex -9.22778 2.21538 0
    endloop
  endfacet
  facet normal 0 0 -1
    outer loop
      vertex -14.6167 6.50779 0
      vertex -12.7896 7.83747 0
      vertex -14.5855 3.50168 0
    endloop
  endfacet
  facet normal -0 0 -1
    outer loop
      vertex -12.7896 7.83747 0
      vertex -14.6167 6.50779 0
      vertex -12.9443 9.40456 0
    endloop
  endfacet
  facet normal 0 0 -1
    outer loop
      vertex -16 0 0
      vertex -14.5855 3.50168 0
      vertex -14.9538 -1.17689 0
    endloop
  endfacet
  facet normal 0 0 -1
    outer loop
      vertex -16 0 0
      vertex -14.9538 -1.17689 0
      vertex -15.6504 -3.32659 0
    endloop
  endfacet
  facet normal -0 0 -1
    outer loop
      vertex -14.5855 3.50168 0
      vertex -15.6504 3.32659 0
      vertex -14.6167 6.50779 0
    endloop
  endfacet
  facet normal 0 0 -1
    outer loop
      vertex -14.5855 3.50168 0
      vertex -16 0 0
      vertex -15.6504 3.32659 0
    endloop
  endfacet
  facet normal 0 0 -1
    outer loop
      vertex 9.22778 -2.21538 0
      vertex 3.08116 -0.654922 0
      vertex 3.15 0 0
    endloop
  endfacet
  facet normal 0 0 -1
    outer loop
      vertex 6.16326 -7.21625 0
      vertex 2.87767 -1.28122 0
      vertex 3.08116 -0.654922 0
    endloop
  endfacet
  facet normal 0 0 -1
    outer loop
      vertex 6.16326 -7.21625 0
      vertex 2.5484 -1.85152 0
      vertex 2.87767 -1.28122 0
    endloop
  endfacet
  facet normal 0 0 -1
    outer loop
      vertex 6.16326 -7.21625 0
      vertex 2.10776 -2.34091 0
      vertex 2.5484 -1.85152 0
    endloop
  endfacet
  facet normal 0 0 -1
    outer loop
      vertex 6.16326 -7.21625 0
      vertex 1.575 -2.72798 0
      vertex 2.10776 -2.34091 0
    endloop
  endfacet
  facet normal 0 0 -1
    outer loop
      vertex 3.63165 -8.7676 0
      vertex 0.973403 -2.99583 0
      vertex 1.575 -2.72798 0
    endloop
  endfacet
  facet normal 0 0 -1
    outer loop
      vertex 0.744576 -9.46074 0
      vertex 0.973403 -2.99583 0
      vertex 3.63165 -8.7676 0
    endloop
  endfacet
  facet normal 0 0 -1
    outer loop
      vertex 0.973403 -2.99583 0
      vertex 0.744576 -9.46074 0
      vertex 0.329265 -3.13274 0
    endloop
  endfacet
  facet normal 0 0 -1
    outer loop
      vertex 9.74171 -11.4061 0
      vertex 12.9443 -9.40456 0
      vertex 10.7061 -11.8903 0
    endloop
  endfacet
  facet normal -0 0 -1
    outer loop
      vertex 12.9443 -9.40456 0
      vertex 9.74171 -11.4061 0
      vertex 12.7896 -7.83747 0
    endloop
  endfacet
  facet normal 0 0 -1
    outer loop
      vertex 8 -13.8564 0
      vertex 9.74171 -11.4061 0
      vertex 10.7061 -11.8903 0
    endloop
  endfacet
  facet normal 0 0 -1
    outer loop
      vertex 5.74025 -13.8582 0
      vertex 9.74171 -11.4061 0
      vertex 8 -13.8564 0
    endloop
  endfacet
  facet normal -0 0 -1
    outer loop
      vertex 9.74171 -11.4061 0
      vertex 5.74025 -13.8582 0
      vertex 6.16326 -7.21625 0
    endloop
  endfacet
  facet normal 0 0 -1
    outer loop
      vertex 4.94427 -15.2169 0
      vertex 5.74025 -13.8582 0
      vertex 8 -13.8564 0
    endloop
  endfacet
  facet normal 0 0 -1
    outer loop
      vertex 1.17689 -14.9538 0
      vertex 4.94427 -15.2169 0
      vertex 1.67245 -15.9123 0
    endloop
  endfacet
  facet normal 0 0 -1
    outer loop
      vertex 4.94427 -15.2169 0
      vertex 1.17689 -14.9538 0
      vertex 5.74025 -13.8582 0
    endloop
  endfacet
  facet normal 0 0 -1
    outer loop
      vertex 0.744576 -9.46074 0
      vertex -0.329265 -3.13274 0
      vertex 0.329265 -3.13274 0
    endloop
  endfacet
  facet normal 0 0 -1
    outer loop
      vertex -2.21538 -9.22778 0
      vertex 0.744576 -9.46074 0
      vertex 1.17689 -14.9538 0
    endloop
  endfacet
  facet normal 0 0 -1
    outer loop
      vertex 0.744576 -9.46074 0
      vertex -2.21538 -9.22778 0
      vertex -0.329265 -3.13274 0
    endloop
  endfacet
  facet normal -0 0 -1
    outer loop
      vertex -0.329265 -3.13274 0
      vertex -2.21538 -9.22778 0
      vertex -0.973403 -2.99583 0
    endloop
  endfacet
  facet normal 0 0 -1
    outer loop
      vertex -1.67245 -15.9123 0
      vertex 1.17689 -14.9538 0
      vertex 1.67245 -15.9123 0
    endloop
  endfacet
  facet normal 0 0 -1
    outer loop
      vertex -3.50168 -14.5855 0
      vertex 1.17689 -14.9538 0
      vertex -1.67245 -15.9123 0
    endloop
  endfacet
  facet normal 0 0 -1
    outer loop
      vertex -4.95851 -8.09155 0
      vertex -0.973403 -2.99583 0
      vertex -2.21538 -9.22778 0
    endloop
  endfacet
  facet normal -0 0 -1
    outer loop
      vertex -0.973403 -2.99583 0
      vertex -4.95851 -8.09155 0
      vertex -1.575 -2.72798 0
    endloop
  endfacet
  facet normal 0 0 -1
    outer loop
      vertex 1.17689 -14.9538 0
      vertex -3.50168 -14.5855 0
      vertex -2.21538 -9.22778 0
    endloop
  endfacet
  facet normal 0 0 -1
    outer loop
      vertex -4.94427 -15.2169 0
      vertex -3.50168 -14.5855 0
      vertex -1.67245 -15.9123 0
    endloop
  endfacet
  facet normal 0 0 -1
    outer loop
      vertex -4.94427 -15.2169 0
      vertex -7.83747 -12.7896 0
      vertex -3.50168 -14.5855 0
    endloop
  endfacet
  facet normal 0 -0 -1
    outer loop
      vertex -7.83747 -12.7896 0
      vertex -4.94427 -15.2169 0
      vertex -8 -13.8564 0
    endloop
  endfacet
  facet normal 0 0 -1
    outer loop
      vertex 14.5855 -3.50168 0
      vertex 16 0 0
      vertex 15.6504 -3.32659 0
    endloop
  endfacet
  facet normal 0 0 -1
    outer loop
      vertex 16 0 0
      vertex 14.9538 1.17689 0
      vertex 15.6504 3.32659 0
    endloop
  endfacet
  facet normal 0 0 -1
    outer loop
      vertex 14.5855 -3.50168 0
      vertex 15.6504 -3.32659 0
      vertex 14.6167 -6.50779 0
    endloop
  endfacet
  facet normal -0 0 -1
    outer loop
      vertex 16 0 0
      vertex 14.5855 -3.50168 0
      vertex 14.9538 1.17689 0
    endloop
  endfacet
  facet normal 0 0 -1
    outer loop
      vertex 12.7896 -7.83747 0
      vertex 14.6167 -6.50779 0
      vertex 12.9443 -9.40456 0
    endloop
  endfacet
  facet normal -0 0 -1
    outer loop
      vertex 14.6167 -6.50779 0
      vertex 12.7896 -7.83747 0
      vertex 14.5855 -3.50168 0
    endloop
  endfacet
  facet normal 0 0 -1
    outer loop
      vertex 12.7896 -7.83747 0
      vertex 9.22778 -2.21538 0
      vertex 14.5855 -3.50168 0
    endloop
  endfacet
  facet normal 0 0 -1
    outer loop
      vertex 8.09155 -4.95851 0
      vertex 9.22778 -2.21538 0
      vertex 12.7896 -7.83747 0
    endloop
  endfacet
  facet normal 0 0 -1
    outer loop
      vertex 3.08116 -0.654922 0
      vertex 9.22778 -2.21538 0
      vertex 8.09155 -4.95851 0
    endloop
  endfacet
  facet normal 0 0 -1
    outer loop
      vertex 9.22778 -2.21538 0
      vertex 3.15 0 0
      vertex 8.7676 3.63165 0
    endloop
  endfacet
  facet normal 0 0 -1
    outer loop
      vertex 3.08116 -0.654922 0
      vertex 8.09155 -4.95851 0
      vertex 6.16326 -7.21625 0
    endloop
  endfacet
  facet normal 0 0 -1
    outer loop
      vertex 13.8582 5.74025 0
      vertex 15.6504 3.32659 0
      vertex 14.9538 1.17689 0
    endloop
  endfacet
  facet normal 0 0 -1
    outer loop
      vertex 15.6504 3.32659 0
      vertex 13.8582 5.74025 0
      vertex 14.6167 6.50779 0
    endloop
  endfacet
  facet normal 0 0 -1
    outer loop
      vertex 9.46074 0.744576 0
      vertex 13.8582 5.74025 0
      vertex 14.9538 1.17689 0
    endloop
  endfacet
  facet normal 0 0 -1
    outer loop
      vertex 9.46074 0.744576 0
      vertex 8.7676 3.63165 0
      vertex 13.8582 5.74025 0
    endloop
  endfacet
  facet normal 0 0 -1
    outer loop
      vertex 8.7676 3.63165 0
      vertex 9.46074 0.744576 0
      vertex 9.22778 -2.21538 0
    endloop
  endfacet
  facet normal 0 0 -1
    outer loop
      vertex 13.8582 5.74025 0
      vertex 12.9443 9.40456 0
      vertex 14.6167 6.50779 0
    endloop
  endfacet
  facet normal 0 0 -1
    outer loop
      vertex 11.4061 9.74171 0
      vertex 12.9443 9.40456 0
      vertex 13.8582 5.74025 0
    endloop
  endfacet
  facet normal 0 0 -1
    outer loop
      vertex 11.4061 9.74171 0
      vertex 10.7061 11.8903 0
      vertex 12.9443 9.40456 0
    endloop
  endfacet
  facet normal 0 0 -1
    outer loop
      vertex 7.83747 12.7896 0
      vertex 10.7061 11.8903 0
      vertex 11.4061 9.74171 0
    endloop
  endfacet
  facet normal 0 0 -1
    outer loop
      vertex 10.7061 11.8903 0
      vertex 7.83747 12.7896 0
      vertex 8 13.8564 0
    endloop
  endfacet
  facet normal 0 0 -1
    outer loop
      vertex 7.21625 6.16326 0
      vertex 7.83747 12.7896 0
      vertex 11.4061 9.74171 0
    endloop
  endfacet
  facet normal 0 0 -1
    outer loop
      vertex 7.21625 6.16326 0
      vertex 4.95851 8.09155 0
      vertex 7.83747 12.7896 0
    endloop
  endfacet
  facet normal 0 0 -1
    outer loop
      vertex 3.08116 0.654922 0
      vertex 8.7676 3.63165 0
      vertex 3.15 0 0
    endloop
  endfacet
  facet normal 0 0 -1
    outer loop
      vertex 3.63165 -8.7676 0
      vertex 6.16326 -7.21625 0
      vertex 5.74025 -13.8582 0
    endloop
  endfacet
  facet normal 0 0 -1
    outer loop
      vertex 1.575 -2.72798 0
      vertex 6.16326 -7.21625 0
      vertex 3.63165 -8.7676 0
    endloop
  endfacet
  facet normal 0 0 -1
    outer loop
      vertex 2.87767 1.28122 0
      vertex 8.7676 3.63165 0
      vertex 3.08116 0.654922 0
    endloop
  endfacet
  facet normal 0 0 -1
    outer loop
      vertex 2.5484 1.85152 0
      vertex 8.7676 3.63165 0
      vertex 2.87767 1.28122 0
    endloop
  endfacet
  facet normal -0 0 -1
    outer loop
      vertex 8.7676 3.63165 0
      vertex 2.5484 1.85152 0
      vertex 7.21625 6.16326 0
    endloop
  endfacet
  facet normal 0 0 -1
    outer loop
      vertex 2.10776 2.34091 0
      vertex 7.21625 6.16326 0
      vertex 2.5484 1.85152 0
    endloop
  endfacet
  facet normal -0 0 -1
    outer loop
      vertex 7.21625 6.16326 0
      vertex 2.10776 2.34091 0
      vertex 4.95851 8.09155 0
    endloop
  endfacet
  facet normal 0 0 -1
    outer loop
      vertex 1.575 2.72798 0
      vertex 4.95851 8.09155 0
      vertex 2.10776 2.34091 0
    endloop
  endfacet
  facet normal 0 0 -1
    outer loop
      vertex 7.83747 12.7896 0
      vertex 4.94427 15.2169 0
      vertex 8 13.8564 0
    endloop
  endfacet
  facet normal 0 0 -1
    outer loop
      vertex 3.50168 14.5855 0
      vertex 4.94427 15.2169 0
      vertex 7.83747 12.7896 0
    endloop
  endfacet
  facet normal 0 0 -1
    outer loop
      vertex 3.50168 14.5855 0
      vertex 1.67245 15.9123 0
      vertex 4.94427 15.2169 0
    endloop
  endfacet
  facet normal 0 0 -1
    outer loop
      vertex -1.17689 14.9538 0
      vertex 3.50168 14.5855 0
      vertex 2.21538 9.22778 0
    endloop
  endfacet
  facet normal 0 0 -1
    outer loop
      vertex 0.973403 2.99583 0
      vertex 4.95851 8.09155 0
      vertex 1.575 2.72798 0
    endloop
  endfacet
  facet normal -0 0 -1
    outer loop
      vertex 4.95851 8.09155 0
      vertex 0.973403 2.99583 0
      vertex 2.21538 9.22778 0
    endloop
  endfacet
  facet normal 0 0 -1
    outer loop
      vertex 0.329265 3.13274 0
      vertex 2.21538 9.22778 0
      vertex 0.973403 2.99583 0
    endloop
  endfacet
  facet normal -0 0 -1
    outer loop
      vertex 2.21538 9.22778 0
      vertex 0.329265 3.13274 0
      vertex -0.744576 9.46074 0
    endloop
  endfacet
  facet normal 0 0 -1
    outer loop
      vertex -0.744576 9.46074 0
      vertex 0.329265 3.13274 0
      vertex -0.329265 3.13274 0
    endloop
  endfacet
  facet normal 0 0 -1
    outer loop
      vertex -1.17689 14.9538 0
      vertex 2.21538 9.22778 0
      vertex -0.744576 9.46074 0
    endloop
  endfacet
  facet normal 0 0 -1
    outer loop
      vertex 3.50168 14.5855 0
      vertex -1.17689 14.9538 0
      vertex 1.67245 15.9123 0
    endloop
  endfacet
  facet normal 0 0 -1
    outer loop
      vertex -1.17689 14.9538 0
      vertex -1.67245 15.9123 0
      vertex 1.67245 15.9123 0
    endloop
  endfacet
  facet normal 0 0 -1
    outer loop
      vertex -1.17689 14.9538 0
      vertex -4.94427 15.2169 0
      vertex -1.67245 15.9123 0
    endloop
  endfacet
  facet normal 0 0 -1
    outer loop
      vertex -5.74025 13.8582 0
      vertex -4.94427 15.2169 0
      vertex -1.17689 14.9538 0
    endloop
  endfacet
  facet normal -0 0 -1
    outer loop
      vertex -5.74025 13.8582 0
      vertex -8 13.8564 0
      vertex -4.94427 15.2169 0
    endloop
  endfacet
  facet normal 0 0 -1
    outer loop
      vertex -9.74171 11.4061 0
      vertex -5.74025 13.8582 0
      vertex -6.16326 7.21625 0
    endloop
  endfacet
  facet normal 0 0 -1
    outer loop
      vertex -5.74025 13.8582 0
      vertex -9.74171 11.4061 0
      vertex -8 13.8564 0
    endloop
  endfacet
  facet normal 0 0 -1
    outer loop
      vertex -9.74171 11.4061 0
      vertex -10.7061 11.8903 0
      vertex -8 13.8564 0
    endloop
  endfacet
  facet normal 0 0 -1
    outer loop
      vertex -12.9443 9.40456 0
      vertex -9.74171 11.4061 0
      vertex -12.7896 7.83747 0
    endloop
  endfacet
  facet normal -0 0 -1
    outer loop
      vertex -9.74171 11.4061 0
      vertex -12.9443 9.40456 0
      vertex -10.7061 11.8903 0
    endloop
  endfacet
  facet normal -0.743145 -0.669131 0
    outer loop
      vertex -10.7061 -11.8903 0
      vertex -12.9443 -9.40456 2.1
      vertex -12.9443 -9.40456 0
    endloop
  endfacet
  facet normal -0.743145 -0.669131 0
    outer loop
      vertex -12.9443 -9.40456 2.1
      vertex -10.7061 -11.8903 0
      vertex -10.7061 -11.8903 2.1
    endloop
  endfacet
  facet normal 0.406736 -0.913546 0
    outer loop
      vertex 4.94427 -15.2169 0
      vertex 8 -13.8564 2.1
      vertex 4.94427 -15.2169 2.1
    endloop
  endfacet
  facet normal 0.406736 -0.913546 0
    outer loop
      vertex 8 -13.8564 2.1
      vertex 4.94427 -15.2169 0
      vertex 8 -13.8564 0
    endloop
  endfacet
  facet normal -0.406736 -0.913546 0
    outer loop
      vertex -8 -13.8564 0
      vertex -4.94427 -15.2169 2.1
      vertex -8 -13.8564 2.1
    endloop
  endfacet
  facet normal -0.406736 -0.913546 -0
    outer loop
      vertex -4.94427 -15.2169 2.1
      vertex -8 -13.8564 0
      vertex -4.94427 -15.2169 0
    endloop
  endfacet
  facet normal -0.207912 -0.978148 0
    outer loop
      vertex -4.94427 -15.2169 0
      vertex -1.67245 -15.9123 2.1
      vertex -4.94427 -15.2169 2.1
    endloop
  endfacet
  facet normal -0.207912 -0.978148 -0
    outer loop
      vertex -1.67245 -15.9123 2.1
      vertex -4.94427 -15.2169 0
      vertex -1.67245 -15.9123 0
    endloop
  endfacet
  facet normal -0.951057 -0.309017 0
    outer loop
      vertex -14.6167 -6.50779 0
      vertex -15.6504 -3.32659 2.1
      vertex -15.6504 -3.32659 0
    endloop
  endfacet
  facet normal -0.951057 -0.309017 0
    outer loop
      vertex -15.6504 -3.32659 2.1
      vertex -14.6167 -6.50779 0
      vertex -14.6167 -6.50779 2.1
    endloop
  endfacet
  facet normal 0.743145 -0.669131 0
    outer loop
      vertex 10.7061 -11.8903 2.1
      vertex 12.9443 -9.40456 0
      vertex 12.9443 -9.40456 2.1
    endloop
  endfacet
  facet normal 0.743145 -0.669131 0
    outer loop
      vertex 12.9443 -9.40456 0
      vertex 10.7061 -11.8903 2.1
      vertex 10.7061 -11.8903 0
    endloop
  endfacet
  facet normal 0.994522 0.104529 0
    outer loop
      vertex 6.1 0 8
      vertex 5.9667 1.26826 2.1
      vertex 5.9667 1.26826 8
    endloop
  endfacet
  facet normal 0.994522 0.104529 0
    outer loop
      vertex 5.9667 1.26826 2.1
      vertex 6.1 0 8
      vertex 6.1 0 2.1
    endloop
  endfacet
  facet normal -0.994522 0.104529 0
    outer loop
      vertex -6.1 0 2.1
      vertex -5.9667 1.26826 8
      vertex -5.9667 1.26826 2.1
    endloop
  endfacet
  facet normal -0.994522 0.104529 0
    outer loop
      vertex -5.9667 1.26826 8
      vertex -6.1 0 2.1
      vertex -6.1 0 8
    endloop
  endfacet
  facet normal 0 1 -0
    outer loop
      vertex 0.637623 6.06658 2.1
      vertex -0.637623 6.06658 8
      vertex 0.637623 6.06658 8
    endloop
  endfacet
  facet normal 0 1 0
    outer loop
      vertex -0.637623 6.06658 8
      vertex 0.637623 6.06658 2.1
      vertex -0.637623 6.06658 2.1
    endloop
  endfacet
  facet normal 0 -1 0
    outer loop
      vertex -0.637623 -6.06658 2.1
      vertex 0.637623 -6.06658 8
      vertex -0.637623 -6.06658 8
    endloop
  endfacet
  facet normal 0 -1 -0
    outer loop
      vertex 0.637623 -6.06658 8
      vertex -0.637623 -6.06658 2.1
      vertex 0.637623 -6.06658 2.1
    endloop
  endfacet
  facet normal 0.743145 0.66913 0
    outer loop
      vertex 4.935 3.58549 8
      vertex 4.0817 4.53318 2.1
      vertex 4.0817 4.53318 8
    endloop
  endfacet
  facet normal 0.743145 0.66913 0
    outer loop
      vertex 4.0817 4.53318 2.1
      vertex 4.935 3.58549 8
      vertex 4.935 3.58549 2.1
    endloop
  endfacet
  facet normal 0.951057 0.309017 0
    outer loop
      vertex 5.9667 1.26826 8
      vertex 5.57263 2.48109 2.1
      vertex 5.57263 2.48109 8
    endloop
  endfacet
  facet normal 0.951057 0.309017 0
    outer loop
      vertex 5.57263 2.48109 2.1
      vertex 5.9667 1.26826 8
      vertex 5.9667 1.26826 2.1
    endloop
  endfacet
  facet normal -0.587785 0.809017 0
    outer loop
      vertex -3.05 5.28275 2.1
      vertex -4.0817 4.53318 8
      vertex -3.05 5.28275 8
    endloop
  endfacet
  facet normal -0.587785 0.809017 0
    outer loop
      vertex -4.0817 4.53318 8
      vertex -3.05 5.28275 2.1
      vertex -4.0817 4.53318 2.1
    endloop
  endfacet
  facet normal -0.406736 0.913546 0
    outer loop
      vertex -1.885 5.80144 2.1
      vertex -3.05 5.28275 8
      vertex -1.885 5.80144 8
    endloop
  endfacet
  facet normal -0.406736 0.913546 0
    outer loop
      vertex -3.05 5.28275 8
      vertex -1.885 5.80144 2.1
      vertex -3.05 5.28275 2.1
    endloop
  endfacet
  facet normal 0.866025 -0.5 0
    outer loop
      vertex 4.935 -3.58549 8
      vertex 5.57263 -2.48109 2.1
      vertex 5.57263 -2.48109 8
    endloop
  endfacet
  facet normal 0.866025 -0.5 0
    outer loop
      vertex 5.57263 -2.48109 2.1
      vertex 4.935 -3.58549 8
      vertex 4.935 -3.58549 2.1
    endloop
  endfacet
  facet normal 0.866025 0.5 0
    outer loop
      vertex 5.57263 2.48109 8
      vertex 4.935 3.58549 2.1
      vertex 4.935 3.58549 8
    endloop
  endfacet
  facet normal 0.866025 0.5 0
    outer loop
      vertex 4.935 3.58549 2.1
      vertex 5.57263 2.48109 8
      vertex 5.57263 2.48109 2.1
    endloop
  endfacet
  facet normal 0.406736 0.913546 -0
    outer loop
      vertex 3.05 5.28275 2.1
      vertex 1.885 5.80144 8
      vertex 3.05 5.28275 8
    endloop
  endfacet
  facet normal 0.406736 0.913546 0
    outer loop
      vertex 1.885 5.80144 8
      vertex 3.05 5.28275 2.1
      vertex 1.885 5.80144 2.1
    endloop
  endfacet
  facet normal 0.207912 0.978148 -0
    outer loop
      vertex 1.885 5.80144 2.1
      vertex 0.637623 6.06658 8
      vertex 1.885 5.80144 8
    endloop
  endfacet
  facet normal 0.207912 0.978148 0
    outer loop
      vertex 0.637623 6.06658 8
      vertex 1.885 5.80144 2.1
      vertex 0.637623 6.06658 2.1
    endloop
  endfacet
  facet normal 0.587785 0.809017 -0
    outer loop
      vertex 4.0817 4.53318 2.1
      vertex 3.05 5.28275 8
      vertex 4.0817 4.53318 8
    endloop
  endfacet
  facet normal 0.587785 0.809017 0
    outer loop
      vertex 3.05 5.28275 8
      vertex 4.0817 4.53318 2.1
      vertex 3.05 5.28275 2.1
    endloop
  endfacet
  facet normal -0.866025 0.5 0
    outer loop
      vertex -5.57263 2.48109 2.1
      vertex -4.935 3.58549 8
      vertex -4.935 3.58549 2.1
    endloop
  endfacet
  facet normal -0.866025 0.5 0
    outer loop
      vertex -4.935 3.58549 8
      vertex -5.57263 2.48109 2.1
      vertex -5.57263 2.48109 8
    endloop
  endfacet
  facet normal -0.743145 0.66913 0
    outer loop
      vertex -4.935 3.58549 2.1
      vertex -4.0817 4.53318 8
      vertex -4.0817 4.53318 2.1
    endloop
  endfacet
  facet normal -0.743145 0.66913 0
    outer loop
      vertex -4.0817 4.53318 8
      vertex -4.935 3.58549 2.1
      vertex -4.935 3.58549 8
    endloop
  endfacet
  facet normal -0.951057 0.309017 0
    outer loop
      vertex -5.9667 1.26826 2.1
      vertex -5.57263 2.48109 8
      vertex -5.57263 2.48109 2.1
    endloop
  endfacet
  facet normal -0.951057 0.309017 0
    outer loop
      vertex -5.57263 2.48109 8
      vertex -5.9667 1.26826 2.1
      vertex -5.9667 1.26826 8
    endloop
  endfacet
  facet normal 0 0 1
    outer loop
      vertex 3.15 0 8
      vertex 6.1 0 8
      vertex 5.9667 1.26826 8
    endloop
  endfacet
  facet normal 0 0 1
    outer loop
      vertex 3.08116 0.654922 8
      vertex 5.9667 1.26826 8
      vertex 5.57263 2.48109 8
    endloop
  endfacet
  facet normal 0 0 1
    outer loop
      vertex 6.1 0 8
      vertex 3.15 0 8
      vertex 5.9667 -1.26826 8
    endloop
  endfacet
  facet normal 0 0 1
    outer loop
      vertex 2.87767 1.28122 8
      vertex 5.57263 2.48109 8
      vertex 4.935 3.58549 8
    endloop
  endfacet
  facet normal -0 0 1
    outer loop
      vertex 3.08116 -0.654922 8
      vertex 5.9667 -1.26826 8
      vertex 3.15 0 8
    endloop
  endfacet
  facet normal 0 0 1
    outer loop
      vertex 2.5484 1.85152 8
      vertex 4.935 3.58549 8
      vertex 4.0817 4.53318 8
    endloop
  endfacet
  facet normal 0 0 1
    outer loop
      vertex 5.9667 -1.26826 8
      vertex 3.08116 -0.654922 8
      vertex 5.57263 -2.48109 8
    endloop
  endfacet
  facet normal -0 0 1
    outer loop
      vertex 2.87767 -1.28122 8
      vertex 5.57263 -2.48109 8
      vertex 3.08116 -0.654922 8
    endloop
  endfacet
  facet normal 0 0 1
    outer loop
      vertex 5.9667 1.26826 8
      vertex 3.08116 0.654922 8
      vertex 3.15 0 8
    endloop
  endfacet
  facet normal 0 0 1
    outer loop
      vertex 2.10776 2.34091 8
      vertex 4.0817 4.53318 8
      vertex 3.05 5.28275 8
    endloop
  endfacet
  facet normal 0 0 1
    outer loop
      vertex 5.57263 2.48109 8
      vertex 2.87767 1.28122 8
      vertex 3.08116 0.654922 8
    endloop
  endfacet
  facet normal 0 0 1
    outer loop
      vertex 4.935 3.58549 8
      vertex 2.5484 1.85152 8
      vertex 2.87767 1.28122 8
    endloop
  endfacet
  facet normal 0 0 1
    outer loop
      vertex 4.0817 4.53318 8
      vertex 2.10776 2.34091 8
      vertex 2.5484 1.85152 8
    endloop
  endfacet
  facet normal 0 0 1
    outer loop
      vertex 1.575 2.72798 8
      vertex 3.05 5.28275 8
      vertex 1.885 5.80144 8
    endloop
  endfacet
  facet normal 0 0 1
    outer loop
      vertex 3.05 5.28275 8
      vertex 1.575 2.72798 8
      vertex 2.10776 2.34091 8
    endloop
  endfacet
  facet normal 0 0 1
    outer loop
      vertex 1.885 5.80144 8
      vertex 0.973403 2.99583 8
      vertex 1.575 2.72798 8
    endloop
  endfacet
  facet normal 0 0 1
    outer loop
      vertex 0.637623 6.06658 8
      vertex 0.973403 2.99583 8
      vertex 1.885 5.80144 8
    endloop
  endfacet
  facet normal 0 0 1
    outer loop
      vertex 0.637623 6.06658 8
      vertex 0.329265 3.13274 8
      vertex 0.973403 2.99583 8
    endloop
  endfacet
  facet normal 0 0 1
    outer loop
      vertex 0.637623 6.06658 8
      vertex -0.329265 3.13274 8
      vertex 0.329265 3.13274 8
    endloop
  endfacet
  facet normal -0 0 1
    outer loop
      vertex -0.637623 6.06658 8
      vertex -0.329265 3.13274 8
      vertex 0.637623 6.06658 8
    endloop
  endfacet
  facet normal 0 0 1
    outer loop
      vertex -0.637623 6.06658 8
      vertex -0.973403 2.99583 8
      vertex -0.329265 3.13274 8
    endloop
  endfacet
  facet normal -0 0 1
    outer loop
      vertex -1.885 5.80144 8
      vertex -0.973403 2.99583 8
      vertex -0.637623 6.06658 8
    endloop
  endfacet
  facet normal 0 0 1
    outer loop
      vertex -0.973403 2.99583 8
      vertex -1.885 5.80144 8
      vertex -1.575 2.72798 8
    endloop
  endfacet
  facet normal -0 0 1
    outer loop
      vertex -3.05 5.28275 8
      vertex -1.575 2.72798 8
      vertex -1.885 5.80144 8
    endloop
  endfacet
  facet normal 0 0 1
    outer loop
      vertex -1.575 2.72798 8
      vertex -3.05 5.28275 8
      vertex -2.10776 2.34091 8
    endloop
  endfacet
  facet normal -0 0 1
    outer loop
      vertex -4.0817 4.53318 8
      vertex -2.10776 2.34091 8
      vertex -3.05 5.28275 8
    endloop
  endfacet
  facet normal 0 0 1
    outer loop
      vertex -2.10776 2.34091 8
      vertex -4.0817 4.53318 8
      vertex -2.5484 1.85152 8
    endloop
  endfacet
  facet normal -0 0 1
    outer loop
      vertex -4.935 3.58549 8
      vertex -2.5484 1.85152 8
      vertex -4.0817 4.53318 8
    endloop
  endfacet
  facet normal 0 0 1
    outer loop
      vertex -2.5484 1.85152 8
      vertex -4.935 3.58549 8
      vertex -2.87767 1.28122 8
    endloop
  endfacet
  facet normal -0 0 1
    outer loop
      vertex -5.57263 2.48109 8
      vertex -2.87767 1.28122 8
      vertex -4.935 3.58549 8
    endloop
  endfacet
  facet normal 0 0 1
    outer loop
      vertex 5.57263 -2.48109 8
      vertex 2.87767 -1.28122 8
      vertex 4.935 -3.58549 8
    endloop
  endfacet
  facet normal -0 0 1
    outer loop
      vertex 2.5484 -1.85152 8
      vertex 4.935 -3.58549 8
      vertex 2.87767 -1.28122 8
    endloop
  endfacet
  facet normal 0 0 1
    outer loop
      vertex 4.935 -3.58549 8
      vertex 2.5484 -1.85152 8
      vertex 4.0817 -4.53318 8
    endloop
  endfacet
  facet normal -0 0 1
    outer loop
      vertex 2.10776 -2.34091 8
      vertex 4.0817 -4.53318 8
      vertex 2.5484 -1.85152 8
    endloop
  endfacet
  facet normal 0 0 1
    outer loop
      vertex 4.0817 -4.53318 8
      vertex 2.10776 -2.34091 8
      vertex 3.05 -5.28275 8
    endloop
  endfacet
  facet normal -0 0 1
    outer loop
      vertex 1.575 -2.72798 8
      vertex 3.05 -5.28275 8
      vertex 2.10776 -2.34091 8
    endloop
  endfacet
  facet normal 0 0 1
    outer loop
      vertex 3.05 -5.28275 8
      vertex 1.575 -2.72798 8
      vertex 1.885 -5.80144 8
    endloop
  endfacet
  facet normal -0 0 1
    outer loop
      vertex 0.973403 -2.99583 8
      vertex 1.885 -5.80144 8
      vertex 1.575 -2.72798 8
    endloop
  endfacet
  facet normal 0 0 1
    outer loop
      vertex 0.973403 -2.99583 8
      vertex 0.637623 -6.06658 8
      vertex 1.885 -5.80144 8
    endloop
  endfacet
  facet normal -0 0 1
    outer loop
      vertex 0.329265 -3.13274 8
      vertex 0.637623 -6.06658 8
      vertex 0.973403 -2.99583 8
    endloop
  endfacet
  facet normal -0 0 1
    outer loop
      vertex -0.329265 -3.13274 8
      vertex 0.637623 -6.06658 8
      vertex 0.329265 -3.13274 8
    endloop
  endfacet
  facet normal 0 0 1
    outer loop
      vertex -0.329265 -3.13274 8
      vertex -0.637623 -6.06658 8
      vertex 0.637623 -6.06658 8
    endloop
  endfacet
  facet normal 0 0 1
    outer loop
      vertex -0.973403 -2.99583 8
      vertex -0.637623 -6.06658 8
      vertex -0.329265 -3.13274 8
    endloop
  endfacet
  facet normal 0 0 1
    outer loop
      vertex -1.885 -5.80144 8
      vertex -0.973403 -2.99583 8
      vertex -1.575 -2.72798 8
    endloop
  endfacet
  facet normal 0 0 1
    outer loop
      vertex -0.973403 -2.99583 8
      vertex -1.885 -5.80144 8
      vertex -0.637623 -6.06658 8
    endloop
  endfacet
  facet normal 0 0 1
    outer loop
      vertex -3.05 -5.28275 8
      vertex -1.575 -2.72798 8
      vertex -2.10776 -2.34091 8
    endloop
  endfacet
  facet normal 0 0 1
    outer loop
      vertex -4.0817 -4.53318 8
      vertex -2.10776 -2.34091 8
      vertex -2.5484 -1.85152 8
    endloop
  endfacet
  facet normal 0 0 1
    outer loop
      vertex -4.935 -3.58549 8
      vertex -2.5484 -1.85152 8
      vertex -2.87767 -1.28122 8
    endloop
  endfacet
  facet normal 0 0 1
    outer loop
      vertex -1.575 -2.72798 8
      vertex -3.05 -5.28275 8
      vertex -1.885 -5.80144 8
    endloop
  endfacet
  facet normal 0 0 1
    outer loop
      vertex -5.57263 -2.48109 8
      vertex -2.87767 -1.28122 8
      vertex -3.08116 -0.654922 8
    endloop
  endfacet
  facet normal 0 0 1
    outer loop
      vertex -5.9667 -1.26826 8
      vertex -3.08116 -0.654922 8
      vertex -3.15 0 8
    endloop
  endfacet
  facet normal 0 0 1
    outer loop
      vertex -2.87767 1.28122 8
      vertex -5.57263 2.48109 8
      vertex -3.08116 0.654922 8
    endloop
  endfacet
  facet normal 0 0 1
    outer loop
      vertex -2.10776 -2.34091 8
      vertex -4.0817 -4.53318 8
      vertex -3.05 -5.28275 8
    endloop
  endfacet
  facet normal -0 0 1
    outer loop
      vertex -5.9667 1.26826 8
      vertex -3.08116 0.654922 8
      vertex -5.57263 2.48109 8
    endloop
  endfacet
  facet normal 0 0 1
    outer loop
      vertex -2.5484 -1.85152 8
      vertex -4.935 -3.58549 8
      vertex -4.0817 -4.53318 8
    endloop
  endfacet
  facet normal 0 0 1
    outer loop
      vertex -3.08116 0.654922 8
      vertex -5.9667 1.26826 8
      vertex -3.15 0 8
    endloop
  endfacet
  facet normal 0 0 1
    outer loop
      vertex -2.87767 -1.28122 8
      vertex -5.57263 -2.48109 8
      vertex -4.935 -3.58549 8
    endloop
  endfacet
  facet normal 0 0 1
    outer loop
      vertex -6.1 0 8
      vertex -3.15 0 8
      vertex -5.9667 1.26826 8
    endloop
  endfacet
  facet normal 0 0 1
    outer loop
      vertex -3.08116 -0.654922 8
      vertex -5.9667 -1.26826 8
      vertex -5.57263 -2.48109 8
    endloop
  endfacet
  facet normal 0 0 1
    outer loop
      vertex -3.15 0 8
      vertex -6.1 0 8
      vertex -5.9667 -1.26826 8
    endloop
  endfacet
  facet normal -0.207912 0.978148 0
    outer loop
      vertex -0.637623 6.06658 2.1
      vertex -1.885 5.80144 8
      vertex -0.637623 6.06658 8
    endloop
  endfacet
  facet normal -0.207912 0.978148 0
    outer loop
      vertex -1.885 5.80144 8
      vertex -0.637623 6.06658 2.1
      vertex -1.885 5.80144 2.1
    endloop
  endfacet
  facet normal 0.207912 -0.978148 0
    outer loop
      vertex 0.637623 -6.06658 2.1
      vertex 1.885 -5.80144 8
      vertex 0.637623 -6.06658 8
    endloop
  endfacet
  facet normal 0.207912 -0.978148 0
    outer loop
      vertex 1.885 -5.80144 8
      vertex 0.637623 -6.06658 2.1
      vertex 1.885 -5.80144 2.1
    endloop
  endfacet
  facet normal 0.587785 -0.809017 0
    outer loop
      vertex 3.05 -5.28275 2.1
      vertex 4.0817 -4.53318 8
      vertex 3.05 -5.28275 8
    endloop
  endfacet
  facet normal 0.587785 -0.809017 0
    outer loop
      vertex 4.0817 -4.53318 8
      vertex 3.05 -5.28275 2.1
      vertex 4.0817 -4.53318 2.1
    endloop
  endfacet
  facet normal 0.743145 -0.66913 0
    outer loop
      vertex 4.0817 -4.53318 8
      vertex 4.935 -3.58549 2.1
      vertex 4.935 -3.58549 8
    endloop
  endfacet
  facet normal 0.743145 -0.66913 0
    outer loop
      vertex 4.935 -3.58549 2.1
      vertex 4.0817 -4.53318 8
      vertex 4.0817 -4.53318 2.1
    endloop
  endfacet
  facet normal 0.951057 -0.309017 0
    outer loop
      vertex 5.57263 -2.48109 8
      vertex 5.9667 -1.26826 2.1
      vertex 5.9667 -1.26826 8
    endloop
  endfacet
  facet normal 0.951057 -0.309017 0
    outer loop
      vertex 5.9667 -1.26826 2.1
      vertex 5.57263 -2.48109 8
      vertex 5.57263 -2.48109 2.1
    endloop
  endfacet
  facet normal 0.994522 -0.104529 0
    outer loop
      vertex 5.9667 -1.26826 8
      vertex 6.1 0 2.1
      vertex 6.1 0 8
    endloop
  endfacet
  facet normal 0.994522 -0.104529 0
    outer loop
      vertex 6.1 0 2.1
      vertex 5.9667 -1.26826 8
      vertex 5.9667 -1.26826 2.1
    endloop
  endfacet
  facet normal -0.587785 -0.809017 0
    outer loop
      vertex -4.0817 -4.53318 2.1
      vertex -3.05 -5.28275 8
      vertex -4.0817 -4.53318 8
    endloop
  endfacet
  facet normal -0.587785 -0.809017 -0
    outer loop
      vertex -3.05 -5.28275 8
      vertex -4.0817 -4.53318 2.1
      vertex -3.05 -5.28275 2.1
    endloop
  endfacet
  facet normal -0.866025 -0.5 0
    outer loop
      vertex -4.935 -3.58549 2.1
      vertex -5.57263 -2.48109 8
      vertex -5.57263 -2.48109 2.1
    endloop
  endfacet
  facet normal -0.866025 -0.5 0
    outer loop
      vertex -5.57263 -2.48109 8
      vertex -4.935 -3.58549 2.1
      vertex -4.935 -3.58549 8
    endloop
  endfacet
  facet normal -0.743145 -0.66913 0
    outer loop
      vertex -4.0817 -4.53318 2.1
      vertex -4.935 -3.58549 8
      vertex -4.935 -3.58549 2.1
    endloop
  endfacet
  facet normal -0.743145 -0.66913 0
    outer loop
      vertex -4.935 -3.58549 8
      vertex -4.0817 -4.53318 2.1
      vertex -4.0817 -4.53318 8
    endloop
  endfacet
  facet normal -0.994522 -0.104529 0
    outer loop
      vertex -5.9667 -1.26826 2.1
      vertex -6.1 0 8
      vertex -6.1 0 2.1
    endloop
  endfacet
  facet normal -0.994522 -0.104529 0
    outer loop
      vertex -6.1 0 8
      vertex -5.9667 -1.26826 2.1
      vertex -5.9667 -1.26826 8
    endloop
  endfacet
  facet normal 0.406736 -0.913546 0
    outer loop
      vertex 1.885 -5.80144 2.1
      vertex 3.05 -5.28275 8
      vertex 1.885 -5.80144 8
    endloop
  endfacet
  facet normal 0.406736 -0.913546 0
    outer loop
      vertex 3.05 -5.28275 8
      vertex 1.885 -5.80144 2.1
      vertex 3.05 -5.28275 2.1
    endloop
  endfacet
  facet normal -0.951057 -0.309017 0
    outer loop
      vertex -5.57263 -2.48109 2.1
      vertex -5.9667 -1.26826 8
      vertex -5.9667 -1.26826 2.1
    endloop
  endfacet
  facet normal -0.951057 -0.309017 0
    outer loop
      vertex -5.9667 -1.26826 8
      vertex -5.57263 -2.48109 2.1
      vertex -5.57263 -2.48109 8
    endloop
  endfacet
  facet normal -0.406736 -0.913546 0
    outer loop
      vertex -3.05 -5.28275 2.1
      vertex -1.885 -5.80144 8
      vertex -3.05 -5.28275 8
    endloop
  endfacet
  facet normal -0.406736 -0.913546 -0
    outer loop
      vertex -1.885 -5.80144 8
      vertex -3.05 -5.28275 2.1
      vertex -1.885 -5.80144 2.1
    endloop
  endfacet
  facet normal -0.207912 -0.978148 0
    outer loop
      vertex -1.885 -5.80144 2.1
      vertex -0.637623 -6.06658 8
      vertex -1.885 -5.80144 8
    endloop
  endfacet
  facet normal -0.207912 -0.978148 -0
    outer loop
      vertex -0.637623 -6.06658 8
      vertex -1.885 -5.80144 2.1
      vertex -0.637623 -6.06658 2.1
    endloop
  endfacet
  facet normal -0.996917 -0.0784591 0
    outer loop
      vertex -0.744576 9.46074 0
      vertex -1.17689 14.9538 2.1
      vertex -1.17689 14.9538 0
    endloop
  endfacet
  facet normal -0.996917 -0.0784591 0
    outer loop
      vertex -1.17689 14.9538 2.1
      vertex -0.744576 9.46074 0
      vertex -0.744576 9.46074 2.1
    endloop
  endfacet
  facet normal 0.233447 -0.97237 0
    outer loop
      vertex -5.74025 13.8582 0
      vertex -1.17689 14.9538 2.1
      vertex -5.74025 13.8582 2.1
    endloop
  endfacet
  facet normal 0.233447 -0.97237 0
    outer loop
      vertex -1.17689 14.9538 2.1
      vertex -5.74025 13.8582 0
      vertex -1.17689 14.9538 0
    endloop
  endfacet
  facet normal 0.923879 0.382685 0
    outer loop
      vertex -3.63165 8.7676 2.1
      vertex -5.74025 13.8582 0
      vertex -5.74025 13.8582 2.1
    endloop
  endfacet
  facet normal 0.923879 0.382685 0
    outer loop
      vertex -5.74025 13.8582 0
      vertex -3.63165 8.7676 2.1
      vertex -3.63165 8.7676 0
    endloop
  endfacet
  facet normal -0.233447 0.972369 0
    outer loop
      vertex -0.744576 9.46074 0
      vertex -3.63165 8.7676 2.1
      vertex -0.744576 9.46074 2.1
    endloop
  endfacet
  facet normal -0.233447 0.972369 0
    outer loop
      vertex -3.63165 8.7676 2.1
      vertex -0.744576 9.46074 0
      vertex -3.63165 8.7676 0
    endloop
  endfacet
  facet normal -0.382682 -0.92388 0
    outer loop
      vertex 3.50168 14.5855 0
      vertex 7.83747 12.7896 2.1
      vertex 3.50168 14.5855 2.1
    endloop
  endfacet
  facet normal -0.382682 -0.92388 -0
    outer loop
      vertex 7.83747 12.7896 2.1
      vertex 3.50168 14.5855 0
      vertex 7.83747 12.7896 0
    endloop
  endfacet
  facet normal 0.972369 -0.233448 0
    outer loop
      vertex 2.21538 9.22778 2.1
      vertex 3.50168 14.5855 0
      vertex 3.50168 14.5855 2.1
    endloop
  endfacet
  facet normal 0.972369 -0.233448 0
    outer loop
      vertex 3.50168 14.5855 0
      vertex 2.21538 9.22778 2.1
      vertex 2.21538 9.22778 0
    endloop
  endfacet
  facet normal 0.382679 0.923881 -0
    outer loop
      vertex 4.95851 8.09155 0
      vertex 2.21538 9.22778 2.1
      vertex 4.95851 8.09155 2.1
    endloop
  endfacet
  facet normal 0.382679 0.923881 0
    outer loop
      vertex 2.21538 9.22778 2.1
      vertex 4.95851 8.09155 0
      vertex 2.21538 9.22778 0
    endloop
  endfacet
  facet normal -0.852641 0.522498 0
    outer loop
      vertex 4.95851 8.09155 0
      vertex 7.83747 12.7896 2.1
      vertex 7.83747 12.7896 0
    endloop
  endfacet
  facet normal -0.852641 0.522498 0
    outer loop
      vertex 7.83747 12.7896 2.1
      vertex 4.95851 8.09155 0
      vertex 4.95851 8.09155 2.1
    endloop
  endfacet
  facet normal -0.760407 -0.649447 0
    outer loop
      vertex -6.16326 7.21625 0
      vertex -9.74171 11.4061 2.1
      vertex -9.74171 11.4061 0
    endloop
  endfacet
  facet normal -0.760407 -0.649447 0
    outer loop
      vertex -9.74171 11.4061 2.1
      vertex -6.16326 7.21625 0
      vertex -6.16326 7.21625 2.1
    endloop
  endfacet
  facet normal 0.760406 -0.649448 0
    outer loop
      vertex -12.7896 7.83747 2.1
      vertex -9.74171 11.4061 0
      vertex -9.74171 11.4061 2.1
    endloop
  endfacet
  facet normal 0.760406 -0.649448 0
    outer loop
      vertex -9.74171 11.4061 0
      vertex -12.7896 7.83747 2.1
      vertex -12.7896 7.83747 0
    endloop
  endfacet
  facet normal 0.522498 0.852641 -0
    outer loop
      vertex -8.09155 4.95851 0
      vertex -12.7896 7.83747 2.1
      vertex -8.09155 4.95851 2.1
    endloop
  endfacet
  facet normal 0.522498 0.852641 0
    outer loop
      vertex -12.7896 7.83747 2.1
      vertex -8.09155 4.95851 0
      vertex -12.7896 7.83747 0
    endloop
  endfacet
  facet normal -0.760406 0.649448 0
    outer loop
      vertex -8.09155 4.95851 0
      vertex -6.16326 7.21625 2.1
      vertex -6.16326 7.21625 0
    endloop
  endfacet
  facet normal -0.760406 0.649448 0
    outer loop
      vertex -6.16326 7.21625 2.1
      vertex -8.09155 4.95851 0
      vertex -8.09155 4.95851 2.1
    endloop
  endfacet
  facet normal -0.852641 -0.522498 0
    outer loop
      vertex 13.8582 5.74025 0
      vertex 11.4061 9.74171 2.1
      vertex 11.4061 9.74171 0
    endloop
  endfacet
  facet normal -0.852641 -0.522498 0
    outer loop
      vertex 11.4061 9.74171 2.1
      vertex 13.8582 5.74025 0
      vertex 13.8582 5.74025 2.1
    endloop
  endfacet
  facet normal 0.649447 -0.760407 0
    outer loop
      vertex 7.21625 6.16326 0
      vertex 11.4061 9.74171 2.1
      vertex 7.21625 6.16326 2.1
    endloop
  endfacet
  facet normal 0.649447 -0.760407 0
    outer loop
      vertex 11.4061 9.74171 2.1
      vertex 7.21625 6.16326 0
      vertex 11.4061 9.74171 0
    endloop
  endfacet
  facet normal 0.852643 0.522495 0
    outer loop
      vertex 8.7676 3.63165 2.1
      vertex 7.21625 6.16326 0
      vertex 7.21625 6.16326 2.1
    endloop
  endfacet
  facet normal 0.852643 0.522495 0
    outer loop
      vertex 7.21625 6.16326 0
      vertex 8.7676 3.63165 2.1
      vertex 8.7676 3.63165 0
    endloop
  endfacet
  facet normal -0.382685 0.923879 0
    outer loop
      vertex 13.8582 5.74025 0
      vertex 8.7676 3.63165 2.1
      vertex 13.8582 5.74025 2.1
    endloop
  endfacet
  facet normal -0.382685 0.923879 0
    outer loop
      vertex 8.7676 3.63165 2.1
      vertex 13.8582 5.74025 0
      vertex 8.7676 3.63165 0
    endloop
  endfacet
  facet normal -0.233448 -0.972369 0
    outer loop
      vertex -14.5855 3.50168 0
      vertex -9.22778 2.21538 2.1
      vertex -14.5855 3.50168 2.1
    endloop
  endfacet
  facet normal -0.233448 -0.972369 -0
    outer loop
      vertex -9.22778 2.21538 2.1
      vertex -14.5855 3.50168 0
      vertex -9.22778 2.21538 0
    endloop
  endfacet
  facet normal 0.996917 -0.0784611 0
    outer loop
      vertex -14.9538 -1.17689 2.1
      vertex -14.5855 3.50168 0
      vertex -14.5855 3.50168 2.1
    endloop
  endfacet
  facet normal 0.996917 -0.0784611 0
    outer loop
      vertex -14.5855 3.50168 0
      vertex -14.9538 -1.17689 2.1
      vertex -14.9538 -1.17689 0
    endloop
  endfacet
  facet normal -0.0784591 0.996917 0
    outer loop
      vertex -9.46074 -0.744576 0
      vertex -14.9538 -1.17689 2.1
      vertex -9.46074 -0.744576 2.1
    endloop
  endfacet
  facet normal -0.0784591 0.996917 0
    outer loop
      vertex -14.9538 -1.17689 2.1
      vertex -9.46074 -0.744576 0
      vertex -14.9538 -1.17689 0
    endloop
  endfacet
  facet normal -0.996917 0.0784611 0
    outer loop
      vertex -9.46074 -0.744576 0
      vertex -9.22778 2.21538 2.1
      vertex -9.22778 2.21538 0
    endloop
  endfacet
  facet normal -0.996917 0.0784611 0
    outer loop
      vertex -9.22778 2.21538 2.1
      vertex -9.46074 -0.744576 0
      vertex -9.46074 -0.744576 2.1
    endloop
  endfacet
  facet normal 0.0784591 -0.996917 0
    outer loop
      vertex 9.46074 0.744576 0
      vertex 14.9538 1.17689 2.1
      vertex 9.46074 0.744576 2.1
    endloop
  endfacet
  facet normal 0.0784591 -0.996917 0
    outer loop
      vertex 14.9538 1.17689 2.1
      vertex 9.46074 0.744576 0
      vertex 14.9538 1.17689 0
    endloop
  endfacet
  facet normal 0.996917 -0.0784611 0
    outer loop
      vertex 9.22778 -2.21538 2.1
      vertex 9.46074 0.744576 0
      vertex 9.46074 0.744576 2.1
    endloop
  endfacet
  facet normal 0.996917 -0.0784611 0
    outer loop
      vertex 9.46074 0.744576 0
      vertex 9.22778 -2.21538 2.1
      vertex 9.22778 -2.21538 0
    endloop
  endfacet
  facet normal 0.233448 0.972369 -0
    outer loop
      vertex 14.5855 -3.50168 0
      vertex 9.22778 -2.21538 2.1
      vertex 14.5855 -3.50168 2.1
    endloop
  endfacet
  facet normal 0.233448 0.972369 0
    outer loop
      vertex 9.22778 -2.21538 2.1
      vertex 14.5855 -3.50168 0
      vertex 9.22778 -2.21538 0
    endloop
  endfacet
  facet normal -0.996917 0.0784611 0
    outer loop
      vertex 14.5855 -3.50168 0
      vertex 14.9538 1.17689 2.1
      vertex 14.9538 1.17689 0
    endloop
  endfacet
  facet normal -0.996917 0.0784611 0
    outer loop
      vertex 14.9538 1.17689 2.1
      vertex 14.5855 -3.50168 0
      vertex 14.5855 -3.50168 2.1
    endloop
  endfacet
  facet normal -0.852643 -0.522495 0
    outer loop
      vertex -7.21625 -6.16326 0
      vertex -8.7676 -3.63165 2.1
      vertex -8.7676 -3.63165 0
    endloop
  endfacet
  facet normal -0.852643 -0.522495 0
    outer loop
      vertex -8.7676 -3.63165 2.1
      vertex -7.21625 -6.16326 0
      vertex -7.21625 -6.16326 2.1
    endloop
  endfacet
  facet normal 0.382685 -0.923879 0
    outer loop
      vertex -13.8582 -5.74025 0
      vertex -8.7676 -3.63165 2.1
      vertex -13.8582 -5.74025 2.1
    endloop
  endfacet
  facet normal 0.382685 -0.923879 0
    outer loop
      vertex -8.7676 -3.63165 2.1
      vertex -13.8582 -5.74025 0
      vertex -8.7676 -3.63165 0
    endloop
  endfacet
  facet normal 0.852641 0.522498 0
    outer loop
      vertex -11.4061 -9.74171 2.1
      vertex -13.8582 -5.74025 0
      vertex -13.8582 -5.74025 2.1
    endloop
  endfacet
  facet normal 0.852641 0.522498 0
    outer loop
      vertex -13.8582 -5.74025 0
      vertex -11.4061 -9.74171 2.1
      vertex -11.4061 -9.74171 0
    endloop
  endfacet
  facet normal -0.649447 0.760407 0
    outer loop
      vertex -7.21625 -6.16326 0
      vertex -11.4061 -9.74171 2.1
      vertex -7.21625 -6.16326 2.1
    endloop
  endfacet
  facet normal -0.649447 0.760407 0
    outer loop
      vertex -11.4061 -9.74171 2.1
      vertex -7.21625 -6.16326 0
      vertex -11.4061 -9.74171 0
    endloop
  endfacet
  facet normal -0.522498 -0.852641 0
    outer loop
      vertex 8.09155 -4.95851 0
      vertex 12.7896 -7.83747 2.1
      vertex 8.09155 -4.95851 2.1
    endloop
  endfacet
  facet normal -0.522498 -0.852641 -0
    outer loop
      vertex 12.7896 -7.83747 2.1
      vertex 8.09155 -4.95851 0
      vertex 12.7896 -7.83747 0
    endloop
  endfacet
  facet normal 0.760406 -0.649448 0
    outer loop
      vertex 6.16326 -7.21625 2.1
      vertex 8.09155 -4.95851 0
      vertex 8.09155 -4.95851 2.1
    endloop
  endfacet
  facet normal 0.760406 -0.649448 0
    outer loop
      vertex 8.09155 -4.95851 0
      vertex 6.16326 -7.21625 2.1
      vertex 6.16326 -7.21625 0
    endloop
  endfacet
  facet normal 0.760407 0.649447 0
    outer loop
      vertex 9.74171 -11.4061 2.1
      vertex 6.16326 -7.21625 0
      vertex 6.16326 -7.21625 2.1
    endloop
  endfacet
  facet normal 0.760407 0.649447 0
    outer loop
      vertex 6.16326 -7.21625 0
      vertex 9.74171 -11.4061 2.1
      vertex 9.74171 -11.4061 0
    endloop
  endfacet
  facet normal -0.760406 0.649448 0
    outer loop
      vertex 9.74171 -11.4061 0
      vertex 12.7896 -7.83747 2.1
      vertex 12.7896 -7.83747 0
    endloop
  endfacet
  facet normal -0.760406 0.649448 0
    outer loop
      vertex 12.7896 -7.83747 2.1
      vertex 9.74171 -11.4061 0
      vertex 9.74171 -11.4061 2.1
    endloop
  endfacet
  facet normal -0.382679 -0.923881 0
    outer loop
      vertex -4.95851 -8.09155 0
      vertex -2.21538 -9.22778 2.1
      vertex -4.95851 -8.09155 2.1
    endloop
  endfacet
  facet normal -0.382679 -0.923881 -0
    outer loop
      vertex -2.21538 -9.22778 2.1
      vertex -4.95851 -8.09155 0
      vertex -2.21538 -9.22778 0
    endloop
  endfacet
  facet normal 0.852641 -0.522498 0
    outer loop
      vertex -7.83747 -12.7896 2.1
      vertex -4.95851 -8.09155 0
      vertex -4.95851 -8.09155 2.1
    endloop
  endfacet
  facet normal 0.852641 -0.522498 0
    outer loop
      vertex -4.95851 -8.09155 0
      vertex -7.83747 -12.7896 2.1
      vertex -7.83747 -12.7896 0
    endloop
  endfacet
  facet normal 0.382682 0.92388 -0
    outer loop
      vertex -3.50168 -14.5855 0
      vertex -7.83747 -12.7896 2.1
      vertex -3.50168 -14.5855 2.1
    endloop
  endfacet
  facet normal 0.382682 0.92388 0
    outer loop
      vertex -7.83747 -12.7896 2.1
      vertex -3.50168 -14.5855 0
      vertex -7.83747 -12.7896 0
    endloop
  endfacet
  facet normal -0.972369 0.233448 0
    outer loop
      vertex -3.50168 -14.5855 0
      vertex -2.21538 -9.22778 2.1
      vertex -2.21538 -9.22778 0
    endloop
  endfacet
  facet normal -0.972369 0.233448 0
    outer loop
      vertex -2.21538 -9.22778 2.1
      vertex -3.50168 -14.5855 0
      vertex -3.50168 -14.5855 2.1
    endloop
  endfacet
  facet normal -0.923879 -0.382685 0
    outer loop
      vertex 5.74025 -13.8582 0
      vertex 3.63165 -8.7676 2.1
      vertex 3.63165 -8.7676 0
    endloop
  endfacet
  facet normal -0.923879 -0.382685 0
    outer loop
      vertex 3.63165 -8.7676 2.1
      vertex 5.74025 -13.8582 0
      vertex 5.74025 -13.8582 2.1
    endloop
  endfacet
  facet normal 0.233447 -0.972369 0
    outer loop
      vertex 0.744576 -9.46074 0
      vertex 3.63165 -8.7676 2.1
      vertex 0.744576 -9.46074 2.1
    endloop
  endfacet
  facet normal 0.233447 -0.972369 0
    outer loop
      vertex 3.63165 -8.7676 2.1
      vertex 0.744576 -9.46074 0
      vertex 3.63165 -8.7676 0
    endloop
  endfacet
  facet normal 0.996917 0.0784591 0
    outer loop
      vertex 1.17689 -14.9538 2.1
      vertex 0.744576 -9.46074 0
      vertex 0.744576 -9.46074 2.1
    endloop
  endfacet
  facet normal 0.996917 0.0784591 0
    outer loop
      vertex 0.744576 -9.46074 0
      vertex 1.17689 -14.9538 2.1
      vertex 1.17689 -14.9538 0
    endloop
  endfacet
  facet normal -0.233447 0.97237 0
    outer loop
      vertex 5.74025 -13.8582 0
      vertex 1.17689 -14.9538 2.1
      vertex 5.74025 -13.8582 2.1
    endloop
  endfacet
  facet normal -0.233447 0.97237 0
    outer loop
      vertex 1.17689 -14.9538 2.1
      vertex 5.74025 -13.8582 0
      vertex 1.17689 -14.9538 0
    endloop
  endfacet
  facet normal -0.994522 -0.104529 0
    outer loop
      vertex 3.15 0 0
      vertex 3.08116 0.654922 8
      vertex 3.08116 0.654922 0
    endloop
  endfacet
  facet normal -0.994522 -0.104529 0
    outer loop
      vertex 3.08116 0.654922 8
      vertex 3.15 0 0
      vertex 3.15 0 8
    endloop
  endfacet
  facet normal 0.994522 -0.104529 0
    outer loop
      vertex -3.15 0 8
      vertex -3.08116 0.654922 0
      vertex -3.08116 0.654922 8
    endloop
  endfacet
  facet normal 0.994522 -0.104529 0
    outer loop
      vertex -3.08116 0.654922 0
      vertex -3.15 0 8
      vertex -3.15 0 0
    endloop
  endfacet
  facet normal 0 -1 0
    outer loop
      vertex -0.329265 3.13274 0
      vertex 0.329265 3.13274 8
      vertex -0.329265 3.13274 8
    endloop
  endfacet
  facet normal 0 -1 -0
    outer loop
      vertex 0.329265 3.13274 8
      vertex -0.329265 3.13274 0
      vertex 0.329265 3.13274 0
    endloop
  endfacet
  facet normal 0 1 -0
    outer loop
      vertex 0.329265 -3.13274 0
      vertex -0.329265 -3.13274 8
      vertex 0.329265 -3.13274 8
    endloop
  endfacet
  facet normal 0 1 0
    outer loop
      vertex -0.329265 -3.13274 8
      vertex 0.329265 -3.13274 0
      vertex -0.329265 -3.13274 0
    endloop
  endfacet
  facet normal -0.743145 -0.66913 0
    outer loop
      vertex 2.5484 1.85152 0
      vertex 2.10776 2.34091 8
      vertex 2.10776 2.34091 0
    endloop
  endfacet
  facet normal -0.743145 -0.66913 0
    outer loop
      vertex 2.10776 2.34091 8
      vertex 2.5484 1.85152 0
      vertex 2.5484 1.85152 8
    endloop
  endfacet
  facet normal 0.587785 -0.809017 0
    outer loop
      vertex -2.10776 2.34091 0
      vertex -1.575 2.72798 8
      vertex -2.10776 2.34091 8
    endloop
  endfacet
  facet normal 0.587785 -0.809017 0
    outer loop
      vertex -1.575 2.72798 8
      vertex -2.10776 2.34091 0
      vertex -1.575 2.72798 0
    endloop
  endfacet
  facet normal 0.406736 -0.913546 0
    outer loop
      vertex -1.575 2.72798 0
      vertex -0.973403 2.99583 8
      vertex -1.575 2.72798 8
    endloop
  endfacet
  facet normal 0.406736 -0.913546 0
    outer loop
      vertex -0.973403 2.99583 8
      vertex -1.575 2.72798 0
      vertex -0.973403 2.99583 0
    endloop
  endfacet
  facet normal -0.866026 -0.499999 0
    outer loop
      vertex 2.87767 1.28122 0
      vertex 2.5484 1.85152 8
      vertex 2.5484 1.85152 0
    endloop
  endfacet
  facet normal -0.866026 -0.499999 0
    outer loop
      vertex 2.5484 1.85152 8
      vertex 2.87767 1.28122 0
      vertex 2.87767 1.28122 8
    endloop
  endfacet
  facet normal -0.951056 -0.309018 0
    outer loop
      vertex 3.08116 0.654922 0
      vertex 2.87767 1.28122 8
      vertex 2.87767 1.28122 0
    endloop
  endfacet
  facet normal -0.951056 -0.309018 0
    outer loop
      vertex 2.87767 1.28122 8
      vertex 3.08116 0.654922 0
      vertex 3.08116 0.654922 8
    endloop
  endfacet
  facet normal -0.406736 -0.913546 0
    outer loop
      vertex 0.973403 2.99583 0
      vertex 1.575 2.72798 8
      vertex 0.973403 2.99583 8
    endloop
  endfacet
  facet normal -0.406736 -0.913546 -0
    outer loop
      vertex 1.575 2.72798 8
      vertex 0.973403 2.99583 0
      vertex 1.575 2.72798 0
    endloop
  endfacet
  facet normal -0.207912 -0.978147 0
    outer loop
      vertex 0.329265 3.13274 0
      vertex 0.973403 2.99583 8
      vertex 0.329265 3.13274 8
    endloop
  endfacet
  facet normal -0.207912 -0.978147 -0
    outer loop
      vertex 0.973403 2.99583 8
      vertex 0.329265 3.13274 0
      vertex 0.973403 2.99583 0
    endloop
  endfacet
  facet normal -0.587785 -0.809017 0
    outer loop
      vertex 1.575 2.72798 0
      vertex 2.10776 2.34091 8
      vertex 1.575 2.72798 8
    endloop
  endfacet
  facet normal -0.587785 -0.809017 -0
    outer loop
      vertex 2.10776 2.34091 8
      vertex 1.575 2.72798 0
      vertex 2.10776 2.34091 0
    endloop
  endfacet
  facet normal 0.866026 -0.499999 0
    outer loop
      vertex -2.87767 1.28122 8
      vertex -2.5484 1.85152 0
      vertex -2.5484 1.85152 8
    endloop
  endfacet
  facet normal 0.866026 -0.499999 0
    outer loop
      vertex -2.5484 1.85152 0
      vertex -2.87767 1.28122 8
      vertex -2.87767 1.28122 0
    endloop
  endfacet
  facet normal 0.743145 -0.66913 0
    outer loop
      vertex -2.5484 1.85152 8
      vertex -2.10776 2.34091 0
      vertex -2.10776 2.34091 8
    endloop
  endfacet
  facet normal 0.743145 -0.66913 0
    outer loop
      vertex -2.10776 2.34091 0
      vertex -2.5484 1.85152 8
      vertex -2.5484 1.85152 0
    endloop
  endfacet
  facet normal 0.951056 -0.309018 0
    outer loop
      vertex -3.08116 0.654922 8
      vertex -2.87767 1.28122 0
      vertex -2.87767 1.28122 8
    endloop
  endfacet
  facet normal 0.951056 -0.309018 0
    outer loop
      vertex -2.87767 1.28122 0
      vertex -3.08116 0.654922 8
      vertex -3.08116 0.654922 0
    endloop
  endfacet
  facet normal 0.207912 -0.978147 0
    outer loop
      vertex -0.973403 2.99583 0
      vertex -0.329265 3.13274 8
      vertex -0.973403 2.99583 8
    endloop
  endfacet
  facet normal 0.207912 -0.978147 0
    outer loop
      vertex -0.329265 3.13274 8
      vertex -0.973403 2.99583 0
      vertex -0.329265 3.13274 0
    endloop
  endfacet
  facet normal -0.994522 0.104529 0
    outer loop
      vertex 3.08116 -0.654922 0
      vertex 3.15 0 8
      vertex 3.15 0 0
    endloop
  endfacet
  facet normal -0.994522 0.104529 0
    outer loop
      vertex 3.15 0 8
      vertex 3.08116 -0.654922 0
      vertex 3.08116 -0.654922 8
    endloop
  endfacet
  facet normal -0.743145 0.66913 0
    outer loop
      vertex 2.10776 -2.34091 0
      vertex 2.5484 -1.85152 8
      vertex 2.5484 -1.85152 0
    endloop
  endfacet
  facet normal -0.743145 0.66913 0
    outer loop
      vertex 2.5484 -1.85152 8
      vertex 2.10776 -2.34091 0
      vertex 2.10776 -2.34091 8
    endloop
  endfacet
  facet normal -0.951056 0.309018 0
    outer loop
      vertex 2.87767 -1.28122 0
      vertex 3.08116 -0.654922 8
      vertex 3.08116 -0.654922 0
    endloop
  endfacet
  facet normal -0.951056 0.309018 0
    outer loop
      vertex 3.08116 -0.654922 8
      vertex 2.87767 -1.28122 0
      vertex 2.87767 -1.28122 8
    endloop
  endfacet
  facet normal -0.866026 0.499999 0
    outer loop
      vertex 2.5484 -1.85152 0
      vertex 2.87767 -1.28122 8
      vertex 2.87767 -1.28122 0
    endloop
  endfacet
  facet normal -0.866026 0.499999 0
    outer loop
      vertex 2.87767 -1.28122 8
      vertex 2.5484 -1.85152 0
      vertex 2.5484 -1.85152 8
    endloop
  endfacet
  facet normal 0.587785 0.809017 -0
    outer loop
      vertex -1.575 -2.72798 0
      vertex -2.10776 -2.34091 8
      vertex -1.575 -2.72798 8
    endloop
  endfacet
  facet normal 0.587785 0.809017 0
    outer loop
      vertex -2.10776 -2.34091 8
      vertex -1.575 -2.72798 0
      vertex -2.10776 -2.34091 0
    endloop
  endfacet
  facet normal 0.866026 0.499999 0
    outer loop
      vertex -2.5484 -1.85152 8
      vertex -2.87767 -1.28122 0
      vertex -2.87767 -1.28122 8
    endloop
  endfacet
  facet normal 0.866026 0.499999 0
    outer loop
      vertex -2.87767 -1.28122 0
      vertex -2.5484 -1.85152 8
      vertex -2.5484 -1.85152 0
    endloop
  endfacet
  facet normal -0.587785 0.809017 0
    outer loop
      vertex 2.10776 -2.34091 0
      vertex 1.575 -2.72798 8
      vertex 2.10776 -2.34091 8
    endloop
  endfacet
  facet normal -0.587785 0.809017 0
    outer loop
      vertex 1.575 -2.72798 8
      vertex 2.10776 -2.34091 0
      vertex 1.575 -2.72798 0
    endloop
  endfacet
  facet normal 0.207912 0.978147 -0
    outer loop
      vertex -0.329265 -3.13274 0
      vertex -0.973403 -2.99583 8
      vertex -0.329265 -3.13274 8
    endloop
  endfacet
  facet normal 0.207912 0.978147 0
    outer loop
      vertex -0.973403 -2.99583 8
      vertex -0.329265 -3.13274 0
      vertex -0.973403 -2.99583 0
    endloop
  endfacet
  facet normal 0.406736 0.913546 -0
    outer loop
      vertex -0.973403 -2.99583 0
      vertex -1.575 -2.72798 8
      vertex -0.973403 -2.99583 8
    endloop
  endfacet
  facet normal 0.406736 0.913546 0
    outer loop
      vertex -1.575 -2.72798 8
      vertex -0.973403 -2.99583 0
      vertex -1.575 -2.72798 0
    endloop
  endfacet
  facet normal 0.743145 0.66913 0
    outer loop
      vertex -2.10776 -2.34091 8
      vertex -2.5484 -1.85152 0
      vertex -2.5484 -1.85152 8
    endloop
  endfacet
  facet normal 0.743145 0.66913 0
    outer loop
      vertex -2.5484 -1.85152 0
      vertex -2.10776 -2.34091 8
      vertex -2.10776 -2.34091 0
    endloop
  endfacet
  facet normal 0.951056 0.309018 0
    outer loop
      vertex -2.87767 -1.28122 8
      vertex -3.08116 -0.654922 0
      vertex -3.08116 -0.654922 8
    endloop
  endfacet
  facet normal 0.951056 0.309018 0
    outer loop
      vertex -3.08116 -0.654922 0
      vertex -2.87767 -1.28122 8
      vertex -2.87767 -1.28122 0
    endloop
  endfacet
  facet normal 0.994522 0.104529 0
    outer loop
      vertex -3.08116 -0.654922 8
      vertex -3.15 0 0
      vertex -3.15 0 8
    endloop
  endfacet
  facet normal 0.994522 0.104529 0
    outer loop
      vertex -3.15 0 0
      vertex -3.08116 -0.654922 8
      vertex -3.08116 -0.654922 0
    endloop
  endfacet
  facet normal -0.406736 0.913546 0
    outer loop
      vertex 1.575 -2.72798 0
      vertex 0.973403 -2.99583 8
      vertex 1.575 -2.72798 8
    endloop
  endfacet
  facet normal -0.406736 0.913546 0
    outer loop
      vertex 0.973403 -2.99583 8
      vertex 1.575 -2.72798 0
      vertex 0.973403 -2.99583 0
    endloop
  endfacet
  facet normal -0.207912 0.978147 0
    outer loop
      vertex 0.973403 -2.99583 0
      vertex 0.329265 -3.13274 8
      vertex 0.973403 -2.99583 8
    endloop
  endfacet
  facet normal -0.207912 0.978147 0
    outer loop
      vertex 0.329265 -3.13274 8
      vertex 0.973403 -2.99583 0
      vertex 0.329265 -3.13274 0
    endloop
  endfacet
endsolid OpenSCAD_Model
